<?xml version="1.0" encoding="utf-8"?>
<!-- Generator: Adobe Illustrator 19.0.0, SVG Export Plug-In . SVG Version: 6.00 Build 0)  -->
<svg version="1.1" id="Livello_1" xmlns="http://www.w3.org/2000/svg" xmlns:xlink="http://www.w3.org/1999/xlink" x="0px" y="0px"
	 viewBox="0 0 549.5 223.7" style="enable-background:new 0 0 549.5 223.7;" xml:space="preserve">
<style type="text/css">
	.st0{fill:#FFFFFF;}
	.st1{fill:#F58232;}
	.st2{fill:#127EC2;}
	.st3{fill:#F15B31;}
	.st4{fill:#242121;}
	.st5{fill:#242021;}
	.st6{fill:#030303;}
	.st7{fill:#040404;}
	.st8{fill:#040303;}
	.st9{fill:#252122;}
	.st10{fill:#F99E36;}
	.st11{fill:#EBEBEC;}
	.st12{fill:#F37B26;}
	.st13{fill:#198FCE;}
	.st14{fill:#048DC2;}
	.st15{fill:#E3E9F0;}
	.st16{fill:#F47A32;}
	.st17{fill:#EBEBEB;}
	.st18{fill:#F05028;}
	.st19{fill:#F1572D;}
	.st20{fill:#F0532A;}
	.st21{fill:#F05229;}
	.st22{fill:#F8992C;}
	.st23{fill:#F89928;}
	.st24{fill:#F8992B;}
	.st25{fill:#F89A2E;}
	.st26{fill:#FFFFFE;}
	.st27{fill:#FFFDFC;}
	.st28{fill:#F15C31;}
	.st29{fill:#F37229;}
	.st30{fill:#F4752C;}
	.st31{fill:#F1552C;}
	.st32{fill:#F05129;}
</style>
<g id="XMLID_1_">
	<g id="XMLID_57_">
		<path id="XMLID_105_" class="st0" d="M462.6,211.9c-61.7,0-123.3,0-185,0c0.5-2.9,3.1-2.7,5-3.2c15.2-4.3,30.5-8.4,45.8-12.6
			c7.1-1.9,7.3-1.9,8-9.2c2.2-20.9,3.8-41.8,5.8-62.6c1.9-19.4,3.6-38.8,5.4-58.2c0.3-3.5,0.3-7,0.9-10.5c0.5-3.2-1-4.2-3.9-4.2
			c-1.3,0-2.7,0-4,0c-43.3,0-86.6,0-130,0c-1.5,0-3,0-4.5,0c-2.8,0-3.8,1.4-3.5,4.1c1.1,11.1,1.9,22.2,2.9,33.3
			c1.5,17.7,3,35.5,4.6,53.2c1.4,16.1,3,32.2,4.1,48.3c0.2,3.5,2.7,4.2,5.3,4.9c16.1,4.3,32.2,8.6,48.3,12.9
			c2.2,0.6,5.2,0.4,5.8,3.7c-62,0-124,0-186,0c0.8-3.1,3.7-3,5.9-3.6c15-4,29.9-8.1,44.9-11.9c7-1.8,7-2.1,7.8-9.4
			c2.6-26.3,5-52.7,7.5-79c1.6-17.4,3.4-34.8,4.8-52.2c0.3-3.1-0.9-4.3-3.8-4.3c-1.7,0-3.3,0-5,0c-43.6,0-87.3,0-130.9,0
			c-2.8,0-5.7,0.5-8.2-1.5c0-12.8,0.1-25.7-0.1-38.5c0-2.1,0.3-3,2.5-2.5c0.6,0.1,1.3,0,2,0c174.1,0,348.1,0,522.2-0.1
			c3.4,0,4.5,0.4,4.5,4.2c-0.2,65-0.2,129.9,0,194.9c0,3.5-0.8,4.1-4.1,4c-23.3-0.2-46.6-0.1-70-0.1c0.6-3.1,3.4-2.9,5.4-3.4
			c15.1-4.1,30.2-8.2,45.4-12.1c7.1-1.8,7.1-2.1,7.8-9.4c1.9-19.2,3.6-38.4,5.4-57.6c2.3-24.5,4.6-49,6.8-73.6
			c0.3-3.5-1.2-4.4-4.2-4.4c-6.3,0-12.7,0-19,0c-38,0-75.9,0-113.9,0c-1.5,0-3,0.1-4.5,0c-3.1-0.1-4.4,1.1-4.1,4.5
			c0.8,9.8,1.7,19.6,2.7,29.3c1.9,19.9,3.7,39.8,5.6,59.6c1.4,14.9,2.8,29.8,4,44.7c0.3,4.2,2.9,5.5,6.3,6.5
			c15.3,4,30.7,7.9,45.8,12.3C459.3,208.9,462.1,208.8,462.6,211.9z"/>
		<path id="XMLID_104_" class="st1" d="M462.6,211.9c-1-1.6-2.9-1.5-4.4-1.9c-16.4-4.4-32.8-8.8-49.2-13c-3.7-0.9-5-2.5-5.3-6.3
			c-4.1-45.6-8.4-91.2-12.8-136.8c-0.3-3.2,0.2-4.3,3.7-4.3c47.3,0.1,94.6,0.1,142,0c3.4,0,4.1,1,3.8,4.3
			c-4.4,45.6-8.6,91.2-12.8,136.8c-0.3,3.7-1.6,5.4-5.3,6.3c-17.8,4.4-35.4,9.2-53.1,13.9c-0.7,0.2-1.3,0.2-1.5,1
			C465.9,211.9,464.2,211.9,462.6,211.9z"/>
		<path id="XMLID_103_" class="st2" d="M273.6,211.9c-6.3-3.1-13.3-4-19.9-5.9c-12.2-3.5-24.4-6.7-36.7-9.7
			c-2.9-0.7-4.1-1.8-4.3-4.9c-3.9-45.8-7.8-91.5-11.9-137.3c-0.3-3.7,0.8-4.4,4.2-4.4c47,0.1,94,0.1,140.9,0c3.8,0,4.7,0.8,4.3,4.7
			c-2.7,27.7-5.2,55.3-7.8,83c-1.7,18.2-3.4,36.5-5,54.7c-0.2,2.8-1.7,3.5-4,4.1c-18,4.8-35.9,9.8-53.9,14.7c-0.8,0.2-1.7,0.1-2.1,1
			C276.2,211.9,274.9,211.9,273.6,211.9z"/>
		<path id="XMLID_102_" class="st3" d="M10.6,49.9c9.8-0.1,19.7-0.2,29.5-0.2c38.5,0,77,0,115.5-0.1c4.2,0,5.1,0.9,4.7,5.3
			c-3.1,30.2-5.8,60.4-8.6,90.5c-1.4,15.4-2.9,30.8-4.2,46.3c-0.3,3.3-1.8,4.4-4.7,5.2c-17.7,4.6-35.4,9.3-53.1,14
			c-0.8,0.2-1.7,0-2,1.1c-1.7,0-3.3,0-5,0c-17.5-3.2-34.5-8.6-51.7-12.9c-7.3-1.8-8.1-3.1-8.8-10.6c-2.6-27-5-54-7.6-80.9
			c-1.5-14.9-2.8-29.8-3.3-44.7c0-0.7-0.1-1.3-0.5-1.9C10.6,57.2,10.6,53.6,10.6,49.9z"/>
		<path id="XMLID_101_" class="st0" d="M10.6,60.9c2.9,5.8,2.1,12.2,2.7,18.3c3.7,37.4,7.1,74.8,10.4,112.2c0.3,3.5,1.8,4.7,4.9,5.5
			c16.6,4.2,33.1,8.7,49.6,13.1c1.5,0.4,3.4,0.2,4.4,1.9c-22.8,0-45.6-0.1-68.3,0.1c-3.3,0-3.7-1-3.7-3.9
			C10.6,159,10.6,109.9,10.6,60.9z"/>
		<path id="XMLID_100_" class="st4" d="M102.8,19.4c1.3-1.9,2.5-3.2,3-4.6c2-6.1,7-4.9,11.5-4.9c1.9,0,2,1.2,2,2.6
			c0,7.3,0,14.6,0,22c0,4.6-3.5,2.3-5.5,2.6c-1.9,0.3-4.6,1.1-4.3-2.7c0.2-2.9,0-5.9,0-10.1c-2.5,3.5-4.4,6-6.6,9.1
			c-2-2.9-3.8-5.5-6.5-9.3c0,3.3,0,5.4,0,7.4c0,5.1-3.9,7.6-8.5,5.5c-1.5-0.7-1.2-1.8-1.2-2.9c0-7.2,0.1-14.3-0.1-21.5
			c0-2.2,0.9-2.5,2.9-2.9C97.3,8.1,100.1,13.5,102.8,19.4z"/>
		<path id="XMLID_99_" class="st5" d="M52.5,23.7c0,2.5,0,5,0,7.5c0,6-2.1,7.4-8.1,6.1c-3-0.7-1.7-2.9-1.7-4.4
			c0.2-3.4-0.3-5-4.4-4.9c-4,0.1-4.5,1.8-4,4.8c0.8,4.6-1.9,4.5-5.2,4.6c-3.6,0.2-5-0.6-4.7-4.6c0.4-6.5,0.4-13,0-19.4
			c-0.2-4.3,2.5-3.4,4.8-3.3c2.4,0.1,5.7-1.2,5.2,3.5c-0.3,2.8-1.1,6,4.1,5.6c3.6-0.3,4.8-1.3,4.1-4.6c-1-5.1,2.4-4.3,5.6-4.6
			c4.2-0.4,4.6,1.6,4.3,4.9C52.3,17.7,52.5,20.7,52.5,23.7z"/>
		<path id="XMLID_98_" class="st6" d="M271.6,27.5c-1.9-2.6-3.5-5.1-5.4-7.3c-1.9-2.2-2.3-4.6-2.3-7.4c0-2.5,0.9-3.1,3.2-3
			c5.8,0.1,11.7,0.3,17.5,0c3.7-0.2,3.4,2.1,2.9,4.1c-0.5,2,2.4,5.9-2.7,5.9c-1.2,0-2.3,0-4.3,0c1.9,2.5,3.5,4.4,5.1,6.4
			c0.8,1,1.8,1.9,2,3.3c1.2,6.5,0.3,7.7-6.4,7.7c-3.8,0-7.7,0-11.5,0c-4.6,0-7.1-3.8-5-8C266.2,26.6,269.1,28.9,271.6,27.5z"/>
		<path id="XMLID_97_" class="st6" d="M304.5,28.1c-2.5-3.4-4.3-6.2-6.4-8.6c-2.2-2.5-1.4-5.3-1.4-8.1c0-2.2,1.9-1.4,3-1.4
			c5.7-0.1,11.3,0.2,17-0.1c3.8-0.2,4.1,1.7,3.8,4.4c-0.3,2.5,1.3,6.2-3.7,5.5c-0.9-0.1-1.9,0.1-3.5,0.1c2.1,2.6,3.7,4.9,5.6,6.9
			c2.6,2.7,1.4,6,1.5,9c0,1.3-1.2,1.4-2.2,1.4c-6.2,0-12.3,0-18.5,0c-3.6,0-2.4-2.7-2.2-4.3c0.1-1.7-1.7-4.7,2.1-4.9
			C300.8,28,302.1,28.1,304.5,28.1z"/>
		<path id="XMLID_96_" class="st6" d="M485.9,19.7c3.3,5.1,8.3,8.2,7.1,14.5c-0.4,2.3-0.9,3.1-3.3,3c-5.3-0.1-10.7-0.3-16,0
			c-3.6,0.2-4.1-1.4-4-4.4c0.1-2.8-0.3-5.6,4-4.9c0.8,0.1,1.6,0,2.9,0c-1-3-3-5-4.7-7.1c-1.8-2.3-2.7-4.7-2.6-7.7
			c0.1-2.5,0.6-3.5,3.3-3.4c5.5,0.2,11,0.3,16.5,0c3.1-0.2,4.4,0.9,3.7,3.9c-0.5,2.4,2,6.6-3.6,6.1
			C488.5,19.7,487.6,19.7,485.9,19.7z"/>
		<path id="XMLID_95_" class="st7" d="M231.1,23.9c0-4.5-1.7-10.4,0.5-13c2.6-3,8.7-0.7,13.3-1c1.3-0.1,2.7,0,4,0
			c5.8,0,7.2,2,5.9,7.7c-0.4,1.7-1.3,1.6-2.5,1.6c-2,0-4,0.2-6,0c-3.8-0.5-5.2,0.8-5,4.8c0.2,3,0.6,4.7,4,4.1c1.5-0.2,3,0.2,4.5-0.1
			c4.4-0.7,5.2,1.3,5,5.3c-0.2,2.8-0.4,4.2-3.8,4c-5.6-0.3-11.3-0.2-17,0c-2.6,0.1-3.6-0.8-3.4-3.4c0.2-3.3,0-6.6,0-10
			C230.9,23.9,231,23.9,231.1,23.9z"/>
		<path id="XMLID_94_" class="st8" d="M461.1,23.7c0,4.3,1.7,10-0.4,12.5c-2.5,3-8.4,0.7-12.8,1c-0.5,0-1,0-1.5,0
			c-8.2,0-8.3,0-8.1-8.5c0-1.4-1.2-4,1.4-3.9c2.7,0.1,6.2-1.9,8.1,1.3c0.9,1.5,1.5,2.1,2.9,1.7c1.5-0.5,0.9-1.9,0.9-3
			c0.1-4,0.2-8,0-12c-0.3-4.2,2.7-3.1,4.6-2.9c1.9,0.2,5.5-2.1,5.3,2.7c-0.1,3.7,0,7.3,0,11C461.4,23.7,461.3,23.7,461.1,23.7z"/>
		<path id="XMLID_93_" class="st5" d="M69.6,9.9c2.8,0,5.7,0.2,8.5-0.1c3.8-0.4,5.1,0.8,5,4.8c-0.1,3.4-0.9,4.9-4.4,4.3
			c-3.1-0.5-4.5,0.5-4.2,4c0.3,3.6-0.2,7.3,0.1,10.9c0.3,3.8-2.1,3.6-4.4,3.2c-2.1-0.3-5.8,1.9-5.6-3c0.2-3.6-0.1-7.3,0.1-11
			c0.2-3.1-0.5-4.9-4-4.2c-4.1,0.8-4.4-1.4-4.4-4.7c-0.1-3.4,0.7-4.8,4.3-4.4C63.6,10.2,66.6,9.9,69.6,9.9z"/>
		<path id="XMLID_92_" class="st9" d="M123.7,23.5c0-2.5,0-5,0-7.5c0-5.7,3.2-7.9,8.6-6.1c1.7,0.6,1.3,1.7,1.3,2.8c0.1,4,0.2,8,0,12
			c-0.1,2.5,0.6,3.7,3.3,3.4c1.8-0.2,3.7,0.2,5.5-0.1c4.2-0.7,4.8,1.3,4.9,5c0,3.6-1,4.6-4.5,4.4c-4.8-0.3-9.7-0.3-14.5,0
			c-3.3,0.2-4.9-0.6-4.5-4.3C124,29.8,123.7,26.6,123.7,23.5z"/>
		<path id="XMLID_91_" class="st10" d="M465.6,130.4c0-21,0.2-42-0.1-62.9c-0.1-4.8,1.5-5.8,5.9-5.7c16.8,0.2,33.6,0.2,50.4,0
			c4.3-0.1,5.1,1.7,4.7,5.3c-1.7,15.8-3.4,31.5-4.9,47.3c-1.2,12.2-2.1,24.4-3.1,36.6c-1,10.9-2,21.7-3,32.6c-0.2,2-1.1,3-2.9,3.4
			c-14.6,3.8-29.1,7.8-43.7,11.6c-4,1.1-3.3-2-3.3-4.2c0-18.6,0-37.3,0-55.9C465.6,135.8,465.6,133.1,465.6,130.4z"/>
		<path id="XMLID_90_" class="st11" d="M461.6,179.8c-11.1-2.9-21.7-5.8-32.3-8.5c-2-0.5-2.5-1.7-2.6-3.6c-0.6-7.1-1.2-14.3-2-21.4
			c-0.3-2.9,0.5-4,3.4-3.3c1.3,0.3,2.6,0.7,3.9,0.7c3.6,0,4.8,1.6,4.8,5.2c0,4.9,5.7,9.1,10.4,8.2c1.6-0.3,1.2-1.3,1.2-2.2
			c-0.1-3-0.3-6-0.4-9c-0.8-20.6-1.4-41.3-2.3-61.9c-0.2-3.9,1-4.7,4.7-4.7c11.3,0.1,11.3,0,11.3,11.1c0,28,0,56,0,84
			C461.6,176.1,461.6,177.7,461.6,179.8z"/>
		<path id="XMLID_89_" class="st12" d="M446.7,78.1c4.5,0,9.1,0,13.6,0c0,0.1,0,0.2,0,0.4c-4.5,0-9.1,0-13.6,0
			C446.7,78.4,446.7,78.3,446.7,78.1z"/>
		<path id="XMLID_88_" class="st13" d="M227.6,81c1.4-1.8,3.4-1,5.1-1.1c13-0.1,26-0.1,39,0c2.8,0,4.3,0,4.1-3.9
			c-0.7-12.2-0.4-12.2,11.6-12.2c15,0,30,0.2,45-0.1c4.7-0.1,5.7,1.5,5.2,5.8c-1.4,13.3-2.6,26.6-3.9,40
			c-1.6,16.3-3.3,32.6-4.9,48.8c-0.7,7.6-1.5,15.1-2,22.7c-0.2,2.4-1.1,3.3-3.5,4c-14.6,3.8-29.1,7.8-43.7,11.8
			c-2.9,0.8-4,0.1-3.9-2.9c0.1-4.3,0-8.7,0-13c0.6-1.1,1.5-1.7,2.6-2.2c9.2-2.9,18.5-5.6,27.7-8.3c6-1.8,6.7-2.5,7.1-8.6
			c1-13.6,2.4-27.2,3.6-40.7c0.3-3.7-1-4.8-4.4-4.8c-8.8,0-17.6,0.1-26.5,0c-2.2,0-4.7,0.4-6.4-1.9c1.3-2.3,3.7-2.8,5.8-3.7
			c10-4.1,20.1-7.9,30.2-11.8c5-2,7.9-10.2,5.2-14.9c-1.3-2.1-3.5-1.6-5.4-1.6c-13.1-0.1-26.3,0-39.4,0c-14.4,0.4-28.7,0.1-43.1,0.1
			C230.9,82.4,229.1,82.3,227.6,81z"/>
		<path id="XMLID_87_" class="st11" d="M233.6,132.9c-0.8-4.7-1.4-9.5-2.4-14.2c-0.7-3.1,1.8-3.2,3.4-3.8c13-5.4,26-10.7,39-16
			c3.9-0.6,3.2,2.5,3.2,4.5c0.2,7.3,0.1,14.6,0.1,21.9c0,2.2,0,4.3,0.2,6.5c-0.1,0.7-0.4,1.2-1,1.5
			C261.9,133.2,247.7,133.9,233.6,132.9z"/>
		<path id="XMLID_86_" class="st11" d="M277.7,180c-0.7,0.3-1.4,0.6-2.1,0.9c-11.1-3-22.1-6.2-33.2-8.9c-4.1-1-6.2-2.4-6.2-7
			c-0.1-6.3-1-12.6-1.7-18.9c-0.3-2.7,0.7-3.7,3.3-3.4c1.3,0.1,2.7,0,4,0c10.4,0,10.5,0,11.9,10.3c0.2,1.8,0.5,3.3,2.6,3.7
			c6,1.1,12.1,2.2,18.1,3.2c0.8,0.6,2,0.1,2.6,1.2c0.1,0.5,0.2,1,0.1,1.5c-0.2,5-0.5,10,0.2,15C277.6,178.5,277.7,179.2,277.7,180z"
			/>
		<path id="XMLID_85_" class="st11" d="M227.6,81c16.3,0,32.6,0,49,0c0.3,0.5,0.5,1,0.5,1.6c-0.2,3.6,0,7.2-0.2,10.7
			c-0.1,2.2-0.5,4.3-3.3,4.6c-13.3,0-26.6,0-39.9,0.1c-2.9,0-4.1-0.6-4.3-3.8C229.1,89.8,228.2,85.4,227.6,81z"/>
		<path id="XMLID_84_" class="st14" d="M276.6,160.9c-0.7-0.3-1.4-0.6-2.2-0.9c1.1-0.2,1.4-0.7,1.4-2c-0.2-7-0.4-13.9-0.1-20.9
			c0.1-2.9-0.7-3.3-3.1-3.3c-11.3,0.1-22.6,0.1-33.8,0c-1.7,0-3.7,0.7-5.2-0.9c14.3,0,28.7-0.1,43-0.1c6.7-2.7,13.7-1.5,20.5-0.8
			c2.4,0.2,2.8,2.6,2.7,4.7c-0.5,5.9-1.2,11.9-2,17.8c-0.3,2-1.3,3.6-3.2,4C288.7,159.9,282.8,161.9,276.6,160.9z"/>
		<path id="XMLID_83_" class="st15" d="M273.6,97.9c2.2-1.5,1.9-3.8,2.1-6.1c0.2-3.3-1.1-6.8,0.9-9.9c1.7,1.7,1.6,3.9,1.6,6.1
			c0.1,12.6,0,25.2,0,37.8c0,2.1,0.1,4.4-1.6,6.1c-1.8-1.8-0.9-4.1-0.9-6.2c-0.1-7.5,0-14.9-0.1-22.4c0-1.6,0.9-3.9-1.9-4.4
			C273.6,98.6,273.6,98.2,273.6,97.9z"/>
		<path id="XMLID_82_" class="st16" d="M85.6,77.9c0-4.2,0.1-8.3,0-12.5c-0.1-2.5,0.8-3.6,3.5-3.6c18,0.1,36,0.1,54,0
			c3,0,3.8,1.2,3.6,3.9c-0.8,8.4-1.4,16.8-2.2,25.2c-0.9,8.9-1.9,17.8-2.8,26.6c-1.3,12.8-2.1,25.7-3.8,38.5
			c-1.1,8.4-1.8,16.8-2.1,25.2c-0.1,3.6-1.2,5.4-4.7,6.3c-13.5,3.4-27,6.7-40.4,10.5c-4.6,1.3-5.2-0.3-5-4.2c0.2-4.3,0-8.7,0-13
			c0.5-1.2,1.5-1.7,2.6-2.2c9.7-3.1,19.6-5.2,29.4-7.9c3.8-1,5.3-2.9,5.7-6.9c1.2-13.2,2.2-26.5,3.7-39.7c0.8-6.7,0.4-7-6.4-7
			c-11.8,0-23.6,0-35.4,0c-6.3,0.2-12.6,0.1-19,0.1c-2.1,0-4.4,0.3-5.8-2c0.3-0.6,0.7-1.1,1.3-1.3c8-0.7,16-1.1,24,0.2
			c14.4,0.5,28.9,0,42.4,0.3c-13.6-0.5-28,0.5-42.4-0.5c-2.7-5-2.2-10-0.4-15.1c1.9-1.8,4.3-1.4,6.6-1.4c10.2-0.1,20.5,0,30.7,0
			c2,0,4,0.4,5.8-0.7c0.3-0.5,0.6-0.9,0.8-1.5c0.9-2.4,0.8-4.9,1-7.4c0.5-6.5,0.5-6.5-6.3-6.6c-12.9-0.1-25.9,0.1-38.8,0
			c-13.6,0.3-27.3,0.1-40.9,0.1c-2,0-4-0.2-5.6-1.7c0-0.3,0.1-0.7,0.1-1c13.1-0.8,26.1-0.1,39.2-0.4c2.5,0,5,0,7.4,0
			c14.8,0,29.7,0,44.6,0c-14.5-0.1-29,0-43.5-0.1C86.1,78.2,85.8,78,85.6,77.9z"/>
		<path id="XMLID_81_" class="st11" d="M60.9,114.9c4,2,8.3,0.6,12.4,0.9c4.1,0.3,8.2,0.2,12.3,0.2c2.5,3.3,1.4,7.1,1.5,10.6
			c0.1,3.4,1.3,4.8,4.7,4.8c4.1-0.1,8.3-0.2,12.4,0.1c1.7,0.1,4.3-0.5,4.2,2.7c-7.6,2.2-15.3,1.8-22.9,0.3
			c-12.4-0.2-24.8,0-37.2-0.1c-1.6,0-3.3,0.7-4.7-0.7c-1.7-17.9-3.4-35.9-5.1-53.8c15.7,0,31.3,0,47,0c1.9,2.3,1.5,5,1.5,7.6
			c0.1,7.9,0.1,7.9,8.2,7.9c9.5,0,19,0,28.4,0c2.3,0,4.7-0.3,6.6,1.5c0.1,0.2,0.1,0.4,0.2,0.7c-1.3,1.6-3.1,0.8-4.6,0.8
			c-13.2,0.1-26.3,0-39.5,0.1c-7,1.8-14.1,0.5-21.1,0.9c-1.7,0.1-3.8-0.8-4.2,2.1C60.1,105.8,63.3,110.4,60.9,114.9z"/>
		<path id="XMLID_80_" class="st17" d="M87.8,180c-0.7,0.3-1.5,0.7-2.2,1c-12.1-3.2-24.1-6.5-36.2-9.7c-1.9-0.5-2.6-1.5-2.7-3.5
			c-0.2-2.4,0.2-5-0.9-7.3c-1-0.8-0.7-1.7-0.2-2.7c-0.3-4-0.4-8-0.9-11.9c-0.3-2.7,0.6-3.7,3.2-3.3c1,0.1,2,0,3,0
			c4,0.1,8.8-1.1,11.7,0.7c2.7,1.8,1.2,7.1,1.9,10.8c0.3,1.6,0.5,2.8,2.4,3.2c6.3,1.4,12.4,3.7,18.9,4.4c0.6-0.3,1-0.1,1.3,0.4
			C87.4,168.2,86.2,174.2,87.8,180z"/>
		<path id="XMLID_79_" class="st16" d="M86.5,162.1c-0.3-0.1-0.6-0.2-1-0.3c0-9,0-18,0-27c-0.3-0.2-0.4-0.4-0.3-0.6
			c0.1-0.2,0.2-0.3,0.3-0.3c7.7,0,15.3,0,23,0c2.2,2.4,0.7,5,0.6,7.6c-0.1,1.7-0.1,3.3-0.2,5c-0.7,11.3-0.9,11.6-11.8,14.2
			C93.7,161.5,90.3,163.5,86.5,162.1z"/>
		<path id="XMLID_78_" class="st18" d="M85.5,78.7c-15.6,0-31.2,0.1-46.8,0.1c1.5-1.5,3.4-0.8,5.2-0.9c13.9-0.1,27.8,0,41.7,0
			c0,0,0,0,0,0c0.3,0.2,0.4,0.4,0.3,0.6C85.8,78.6,85.6,78.7,85.5,78.7z"/>
		<path id="XMLID_77_" class="st19" d="M85.6,133.9c0,0.3,0,0.6,0,0.9c-12.3,0-24.6,0-36.9,0c-1.7,0-3.7,0.8-5-1.2
			C57.6,133.7,71.6,133.8,85.6,133.9z"/>
		<path id="XMLID_76_" class="st20" d="M62.2,141.7c-5.4,0-10.9,0-16.3,0c0-0.2,0-0.3,0-0.5c5.5,0,11,0,16.5,0
			C62.4,141.4,62.3,141.6,62.2,141.7z"/>
		<path id="XMLID_75_" class="st21" d="M45.5,157.9c0.1,0.9,0.1,1.8,0.2,2.7c-0.1,0.8-0.3,1.5-0.6,3.4
			C44.5,161.1,44.1,159.4,45.5,157.9z"/>
		<path id="XMLID_74_" class="st0" d="M468.7,80.1c8.2-1.3,16.5-0.3,24.7-0.5c5.3-0.2,10.6,0.1,15.9-0.1c2.7-0.1,3.4,1,3.1,3.5
			c-0.5,3.9-0.6,7.9-0.9,11.8c0.3,2.1-1.1,2.5-2.6,2.5c-1.5,0-2.9,0.3-4.2,0.8c-2,0.3-3.9,0.2-5.9,0.2c-2.3-0.1-4.5-0.1-6.8-0.2
			c-4.3-0.2-5.5,1.8-5,5.6c-0.6,3.7-0.8,7.5-1.6,11.2c5.7,1.8,11.5,0.6,17.2,0.8c6.4,0.2,6.6,0.1,6,6.7c-1.3,14.9-2.8,29.8-4.1,44.7
			c-0.2,2.6-1.1,3.9-3.6,4.5c-10.6,2.7-21.3,5.5-31.9,8.2c-1.7-5.9-1.1-11.8-0.3-17.8c5.9-2.9,12.4-3.4,18.6-5
			c2.6-0.7,3.6-1.8,3.8-4.3c0.4-5.8,0.9-11.6,1.5-17.4c0.3-2.8-0.7-3.4-3.3-3.1c-5.8,0.6-11.6,0.8-17.4,1.3
			c-1.2,0.1-2.3,0.1-3.3-0.8c-0.9-1-0.6-2.2-0.6-3.3c0-15.3,0-30.6,0-45.9C468.1,82.3,467.8,81.1,468.7,80.1z"/>
		<path id="XMLID_73_" class="st10" d="M498.6,97c2,0,4,0,6-0.1c0.5,0.6,1.5,0.3,2,1c-2.6,3.2-6.1,2.2-9.5,2.2c-1.1,0-2.7-2.2-3.2,0
			c-0.5,1.9,1,3.5,3.2,3.3c1-0.1,1.9-0.7,2.8,0.7c-2.2,1.6-5.3,2.6-5.4,6.1c0,0.5-0.3,1.1-0.9,0.8c-0.6-0.3-1.1-0.8-1.4-1.3
			c-0.5-0.9,0.6-1.4,0.9-2.2c1.1-2.8-1-4.4-2.8-5c-2.5-0.9-1.4,1.8-1.8,3c-2.2,7-1.3,8.2,6.1,8.3c4.6,0.1,9.2,0,13.9,1.1
			c-7.7,0-15.4,0-23.1,0c-0.6-3.7,0.1-7.4,0.3-11.1c0.4-0.8,0.5-1.6,0.4-2.4c-0.5-3.3,1-4.3,4.2-4.1C493,97.5,495.8,97.8,498.6,97z"
			/>
		<path id="XMLID_72_" class="st22" d="M468.7,80.1c0,17.5,0,35.1,0,52.6c-1.6,0.6-1.1-0.7-1.1-1.3c0-16.6,0-33.3,0-49.9
			c0-1,0.1-2,1-2.7l0,0C468.6,79.3,468.7,79.7,468.7,80.1z"/>
		<path id="XMLID_71_" class="st23" d="M468.6,78.9c1-1.2,2.4-1,3.7-1c12.5,0,25,0,37.5,0c0.6,0,1.2,0.2,1.7,1
			C497.2,78.9,482.9,78.9,468.6,78.9C468.6,78.9,468.6,78.9,468.6,78.9z"/>
		<path id="XMLID_70_" class="st24" d="M468.7,162.1c0.1,5.9,0.2,11.8,0.3,17.8c-2.8-2.2-1.1-5.1-1.3-7.7c-0.2-3.4,0.1-6.8,0.2-10.1
			c0,0,0.3-0.1,0.4-0.1C468.4,161.9,468.5,162,468.7,162.1z"/>
		<path id="XMLID_69_" class="st25" d="M506.6,97.9c-0.8,0-1.6-0.2-2-1c2.2-0.9,5.3,1,6.9-2.1C512.3,99.8,508.4,97.1,506.6,97.9z"/>
		<path id="XMLID_68_" class="st0" d="M276.6,131.9c0-16.7,0-33.3,0-50c0-0.3,0-0.6,0-0.9c14.2-0.1,28.3-0.1,42.5-0.2
			c2.8,0,3.2,1.2,3.3,3.6c0.5,13.1,0.6,13.1-11.7,17.9c-10,3.9-20.1,7.8-30,12.6c10.3,0,20.6,0,30.9,0c7.3,0,7.1,0,6.3,7.2
			c-1.5,14.7-2.8,29.5-4.1,44.2c-0.2,1.9-0.3,3.5-2.6,4.1c-11.2,3.1-22.3,6.3-33.5,9.5c-0.4-0.4-0.7-0.7-1.1-1.1
			c-0.8-5.7-0.8-11.3,0-17c0-0.3,0-0.7,0-1c5.2-1,10.3-2.2,15.5-3c3.2-0.5,4.5-1.7,4.6-5.1c0.2-5.1,0.9-10.2,1.7-15.3
			c0.5-3.3-0.1-4.8-3.9-4.7c-5.9,0.2-11.9,0-17.9-0.1C276.6,132.5,276.6,132.2,276.6,131.9z"/>
		<path id="XMLID_67_" class="st15" d="M276.6,161.9c0,5.7,0,11.3,0,17C275,173.2,275,167.6,276.6,161.9z"/>
		<path id="XMLID_66_" class="st26" d="M86.5,162.1c5.6-1.5,11.2-3,16.8-4.4c2.2-0.5,3.3-1.5,3.4-4c0.4-6.6,1.2-13.2,1.8-19.8
			c-5.4-2.3-11-0.7-16.5-1c-6.4-0.3-6.4-0.1-6.4-6.5c0-3.5,0-7,0-10.4c13.5-0.1,26.9-0.1,40.4-0.3c2.3,0,3.1,0.5,2.9,3.1
			c-1.6,16.4-3,32.8-4.5,49.2c-0.2,1.9-0.9,3-2.9,3.4c-11.3,2.8-22.5,5.7-33.8,8.6c-1-0.2-2.1-0.5-2.1-1.7
			C85.9,172.9,84.6,167.4,86.5,162.1z"/>
		<path id="XMLID_65_" class="st27" d="M130.3,96.9c-12.5,0-24.9,0-37.4,0c-8.3,0-7.2,0.9-7.3-7.6c0-3.2,0-6.3,0-9.5
			c14.6-0.1,29.3-0.2,43.9-0.3c1.5,0,3.4-0.2,2.9,2.2C131.4,86.7,132.3,92,130.3,96.9z"/>
		<path id="XMLID_64_" class="st28" d="M60.9,114.9c-0.6-4.7-1.5-9.3-1.2-14c0.5-2.2,2-2.5,4-2.5c7,0.1,14.1,0,21.1,0.1
			c0.3,0.1,0.5,0.3,0.8,0.4c0,5,0,10,0,15c-0.3,0.1-0.5,0.3-0.8,0.4c-7.7,0.4-15.4-0.5-23.1,0.5C61.4,114.8,61.1,114.8,60.9,114.9z"
			/>
		<path id="XMLID_63_" class="st29" d="M85.5,78.7c0.1-0.3,0.1-0.5,0.1-0.8c15.3,0,30.5,0,45.8,0c0,0.3,0,0.5,0,0.8
			C116.1,78.7,100.8,78.7,85.5,78.7z"/>
		<path id="XMLID_62_" class="st29" d="M85.6,97.8c15-0.1,29.9-0.2,44.9-0.2c-1.2,2.2-3.2,1.3-4.9,1.3c-13.3,0.1-26.6,0-40,0
			c0,0-0.1,0-0.1,0c-0.3-0.3-0.4-0.5-0.3-0.8C85.4,97.9,85.5,97.8,85.6,97.8z"/>
		<path id="XMLID_61_" class="st30" d="M85.6,113.9c14.3,0,28.5,0,42.8,0c0,0.3,0,0.6,0,0.9c-14.3,0-28.6,0-42.9,0
			c-0.3-0.2-0.4-0.4-0.3-0.6C85.3,114,85.5,113.9,85.6,113.9L85.6,113.9z"/>
		<path id="XMLID_60_" class="st31" d="M85.6,113.9c0,0.3,0,0.6,0,0.9c-7.9,0-15.9,0-23.8,0c5.4-1.9,11-0.5,16.5-0.9
			C80.6,113.7,83.1,113.9,85.6,113.9z"/>
		<path id="XMLID_59_" class="st32" d="M85.6,97.8c0,0.4,0,0.7,0,1.1c-6.9,0-13.8,0.1-20.7,0c-2.1,0-3.9,0.2-5.2,2
			c-0.6-2-0.8-3.5,2.2-3.5C69.8,97.6,77.7,97.7,85.6,97.8z"/>
		<path id="XMLID_58_" class="st10" d="M498.6,97c-1.2,1.3-2.7,1.1-4.1,0.9c-4.9-0.7-8.4,0.2-8.7,6c-0.2-6.9-0.2-6.9,6.5-7
			C494.3,96.9,496.4,97,498.6,97z"/>
	</g>
</g>
</svg>
