<?xml version="1.0" encoding="utf-8"?>
<!-- Generator: Adobe Illustrator 19.0.0, SVG Export Plug-In . SVG Version: 6.00 Build 0)  -->
<svg version="1.1" id="Livello_1" xmlns="http://www.w3.org/2000/svg" xmlns:xlink="http://www.w3.org/1999/xlink" x="0px" y="0px"
	 viewBox="0 7.3 960 545.4" style="enable-background:new 0 7.3 960 545.4;" xml:space="preserve">
<style type="text/css">
	.st0{fill:none;stroke:#000000;stroke-width:10;stroke-miterlimit:10;}
	.st1{fill:#FFFFFF;}
    .animated {
        -webkit-animation-duration: 2s;
        animation-duration: 2s;
        -webkit-animation-fill-mode: both;
        animation-fill-mode: both;
    }

    .animated.infinite {
        -webkit-animation-iteration-count: infinite;
        animation-iteration-count: infinite;
    }
    
    @-webkit-keyframes flash {
        from, 50%, to {
            opacity: 1;
        }

        25%, 75% {
            opacity: 0;
        }
    }
    
    @keyframes flash {
        from, 50%, to {
            opacity: 1;
        }

        25%, 75% {
            opacity: 0;
        }
    }

    .flash {
        -webkit-animation-name: flash;
        animation-name: flash;
    }

</style>
<g>
	<g id="XMLID_2_">
		<g id="XMLID_9_">
			<path id="XMLID_17_" d="M937,67.7V510H23.3V67.7c0-33.4,27-60.4,60.4-60.4h792.9C910.1,7.3,937,34.3,937,67.7z M898,485.9V106.3
				c0-33.4-27-60.4-60.4-60.4H123.2c-33.4,0-60.4,27-60.4,60.4v379.6H898z"/>
		</g>
		<g id="XMLID_15_">
		</g>
	</g>
	<path id="XMLID_1_" d="M924.6,552.7H35.8C16.1,552.7,0,536.6,0,516.9l0,0c0-3.6,2.8-6.4,6.4-6.4h947.1c3.6,0,6.4,2.8,6.4,6.4l0,0
		C960.4,536.6,944.3,552.7,924.6,552.7z"/>
	<g id="XMLID_7_">
		<path id="XMLID_8_" d="M334.9,271.3l83.3-43.1v12.5l-70.4,35.4v0.4l70.4,35.4v12.5l-83.3-43.1V271.3z"/>
		<path id="XMLID_11_" d="M430.3,330.9l50.3-130.4h12.1l-50.3,130.4H430.3z"/>
		<path id="XMLID_13_" d="M625.5,281l-83.7,42.7v-12.1l70.8-35.4v-0.4l-70.8-35.4v-12.5l83.3,42.7V281H625.5z"/>
	</g>
	<line id="XMLID_16_" class="st0 animated infinite flash" x1="651.3" y1="198.9" x2="651.3" y2="331.7"/>
	<circle id="XMLID_20_" class="st1" cx="481" cy="28.6" r="6"/>
</g>
</svg>
