<?xml version="1.0" encoding="utf-8"?>
<!-- Generator: Adobe Illustrator 15.0.2, SVG Export Plug-In . SVG Version: 6.00 Build 0)  -->
<!DOCTYPE svg PUBLIC "-//W3C//DTD SVG 1.1//EN" "http://www.w3.org/Graphics/SVG/1.1/DTD/svg11.dtd">
<svg version="1.1" id="Layer_1" xmlns="http://www.w3.org/2000/svg" xmlns:xlink="http://www.w3.org/1999/xlink" x="0px" y="0px"
	 width="512px" height="512px" viewBox="0 0 512 512" enable-background="new 0 0 512 512" xml:space="preserve">
<path d="M219.458,509.923c-60.631-9.867-108.322-35.725-151.475-82.121c-20.146-21.662-28.578-33.857-40.617-58.741
	C6.696,326.34,1.601,303.226,1.754,252.87c0.106-34.917,1.333-44.917,8.482-69.089c14.725-49.802,43.929-93.939,83.378-126.017
	c29.303-23.827,47.729-34.201,80.645-45.401c57.634-19.611,133.534-15.587,187.114,9.919
	c55.947,26.632,107.174,80.816,129.586,137.071c23.15,58.102,22.676,135.947-1.201,195.004
	c-17.916,44.313-60.508,94.413-101.551,119.453c-19.404,11.835-48.729,24.381-72.037,30.814
	C300.015,509.085,235.895,512.594,219.458,509.923z"/>
<path fill="#FFFFFF" d="M423.802,363.96c32.26-15.36,56.799-46.869,65.525-84.139c4.861-20.765,2.408-66.519-4.891-91.331
	c-22.309-75.766-85.855-139.392-163.586-163.78c-19.838-6.224-30.047-7.342-67.075-7.342c-49.305,0-72.907,5.431-111.165,25.581
	C88.839,71.269,41.53,132.513,26.191,193.655c-7.372,29.389-5.98,37.246,2.793,15.767c17.912-43.849,42.746-64.64,85.117-71.257
	c41.051-6.412,78.728,5.674,106.198,34.061c19.529,20.183,28.862,42.232,33.686,79.572c4.938,38.208,8.642,49.972,22.334,70.896
	c23.621,36.101,54.922,51.464,102.244,50.193C401.313,372.273,409.903,370.578,423.802,363.96z"/>
<path d="M354.485,281.901c-25.754-21.406-12.604-58.867,20.656-58.867c14.988,0,25.184,8.235,29.506,23.836
	C413.036,277.135,378.101,301.53,354.485,281.901z"/>
<path fill="#FFFFFF" d="M157.99,279.715c11.031-11.106,13.959-23.483,8.579-36.266c-14.925-35.467-64.049-24.997-64.09,13.658
	c-0.009,7.785,2.743,13.296,10.594,21.197C127.432,292.758,144.5,293.292,157.99,279.715z"/>
</svg>
