<?xml version="1.0" encoding="UTF-8" standalone="no"?>
<!-- Created with Inkscape (http://www.inkscape.org/) -->

<svg
   xmlns:dc="http://purl.org/dc/elements/1.1/"
   xmlns:cc="http://creativecommons.org/ns#"
   xmlns:rdf="http://www.w3.org/1999/02/22-rdf-syntax-ns#"
   xmlns:svg="http://www.w3.org/2000/svg"
   xmlns="http://www.w3.org/2000/svg"
   xmlns:sodipodi="http://sodipodi.sourceforge.net/DTD/sodipodi-0.dtd"
   xmlns:inkscape="http://www.inkscape.org/namespaces/inkscape"
   id="svg2"
   version="1.1"
   inkscape:version="0.48.4 r9939"
   width="1600"
   height="1000"
   xml:space="preserve"
   sodipodi:docname="New document 1"><metadata
     id="metadata8"><rdf:RDF><cc:Work
         rdf:about=""><dc:format>image/svg+xml</dc:format><dc:type
           rdf:resource="http://purl.org/dc/dcmitype/StillImage" /><dc:title></dc:title></cc:Work></rdf:RDF></metadata><defs
     id="defs6"><clipPath
       clipPathUnits="userSpaceOnUse"
       id="clipPath16"><path
         d="M 0,800 1280,800 1280,0 0,0 0,800 z"
         id="path18" /></clipPath></defs><sodipodi:namedview
     pagecolor="#000000"
     bordercolor="#666666"
     borderopacity="1"
     objecttolerance="10"
     gridtolerance="10"
     guidetolerance="10"
     inkscape:pageopacity="0"
     inkscape:pageshadow="2"
     inkscape:window-width="640"
     inkscape:window-height="480"
     id="namedview4"
     showgrid="false"
     inkscape:zoom="0.20375"
     inkscape:cx="800"
     inkscape:cy="500"
     inkscape:window-x="65"
     inkscape:window-y="24"
     inkscape:window-maximized="0"
     inkscape:current-layer="g10" /><g
     id="g10"
     inkscape:groupmode="layer"
     inkscape:label="yin yang"
     transform="matrix(1.25,0,0,-1.25,0,1000)"><g
       id="g12"><g
         id="g14"
         clip-path="url(#clipPath16)"><g
           id="g20"
           transform="translate(955.8293,411.4629)"><path
             d="m 0,0 c 0,-202.656 -164.059,-366.957 -366.608,-367.394 -246.323,0.746 -248.198,386.931 -1.364,386.931 245.95,0 245.492,344.808 3.395,344.808 C -160.821,364.345 0,201.974 0,0"
             style="fill:#000000;fill-opacity:1;fill-rule:nonzero;stroke:none"
             id="path22" /></g><g
           id="g24"
           transform="translate(639.8077,55.6749)"><path
             d="M 0,0 C -0.003,-0.083 -0.008,-0.205 -0.009,-0.242 L 0.005,0.088 0,0 z"
             style="fill:#202020;fill-opacity:1;fill-rule:nonzero;stroke:none"
             id="path26" /></g><g
           id="g28"
           transform="translate(639.7892,55.0622)"><path
             d="M 0,0 C 0.007,0.16 0.019,0.442 0.033,0.746 0.018,0.428 0.024,0.561 0.007,0.182 0.004,0.144 0.009,0.288 0.014,0.41 0.01,0.333 0.018,0.465 0.007,0.275 -0.003,0.019 -0.001,0.009 0.009,0.22 0.006,0.147 0.003,0.061 0,0"
             style="fill:#202020;fill-opacity:1;fill-rule:nonzero;stroke:none"
             id="path30" /></g><g
           id="g32"
           transform="translate(639.8727,54.545)"><path
             d="M 0,0 0.001,0.039 C 0,0.018 0,0.006 0,0"
             style="fill:#202020;fill-opacity:1;fill-rule:nonzero;stroke:none"
             id="path34" /></g><g
           id="g36"
           transform="translate(639.9319,54.3625)"><path
             d="M 0,0 C 0,-0.008 -0.002,-0.041 -0.003,-0.071 -0.002,-0.049 -0.001,-0.029 0,0"
             style="fill:#202020;fill-opacity:1;fill-rule:nonzero;stroke:none"
             id="path38" /></g><g
           id="g40"
           transform="translate(639.9318,53.9978)"><path
             d="M 0,0 C 0,0.01 0,0.015 0,0.022 -0.001,-0.008 -0.001,-0.025 0,0"
             style="fill:#202020;fill-opacity:1;fill-rule:nonzero;stroke:none"
             id="path42" /></g><g
           id="g44"
           transform="translate(639.8727,54.545)"><path
             d="M 0,0 -0.002,-0.104 C 0,0.004 0,-0.024 0,0"
             style="fill:#202020;fill-opacity:1;fill-rule:nonzero;stroke:none"
             id="path46" /></g><g
           id="g48"
           transform="translate(639.8355,55.8597)"><path
             d="m 0,0 c -0.001,-0.016 -0.002,-0.047 -0.004,-0.087 0.001,0.014 0.001,0.026 0.002,0.035 L 0,0 z"
             style="fill:#202020;fill-opacity:1;fill-rule:nonzero;stroke:none"
             id="path50" /></g><g
           id="g52"
           transform="translate(639.8342,54.2773)"><path
             d="M 0,0 -0.001,0 C -0.002,-0.038 -0.004,-0.084 -0.006,-0.135 L 0,0 z"
             style="fill:#202020;fill-opacity:1;fill-rule:nonzero;stroke:none"
             id="path54" /></g><g
           id="g56"
           transform="translate(639.8099,54.2269)"><path
             d="M 0,0 C 0,0.012 0.011,0.269 0.016,0.391 0.011,0.276 0.008,0.221 0.007,0.199 0.005,0.145 0.003,0.082 0,0"
             style="fill:#202020;fill-opacity:1;fill-rule:nonzero;stroke:none"
             id="path58" /></g><g
           id="g60"
           transform="translate(639.7943,54.7214)"><path
             d="M 0,0 -0.002,-0.039 C -0.001,-0.027 -0.001,-0.015 0,0"
             style="fill:#202020;fill-opacity:1;fill-rule:nonzero;stroke:none"
             id="path62" /></g><g
           id="g64"
           transform="translate(639.848,54.2163)"><path
             d="M 0,0 C -0.001,-0.042 -0.003,-0.079 -0.003,-0.101 -0.002,-0.065 -0.001,-0.032 0,0"
             style="fill:#202020;fill-opacity:1;fill-rule:nonzero;stroke:none"
             id="path66" /></g><g
           id="g68"
           transform="translate(640.4771,56.3198)"><path
             d="M 0,0 C 0,-0.02 0,-0.033 0,-0.05 0,-0.022 0,0 0,0"
             style="fill:#202020;fill-opacity:1;fill-rule:nonzero;stroke:none"
             id="path70" /></g><g
           id="g72"
           transform="translate(640.5,54.9274)"><path
             d="M 0,0 0,-0.015 0,-0.173 0,0 z"
             style="fill:#202020;fill-opacity:1;fill-rule:nonzero;stroke:none"
             id="path74" /></g><g
           id="g76"
           transform="translate(639.942,53.6376)"><path
             d="M 0,0 0,0.005 C -0.001,-0.027 -0.001,-0.021 0,0"
             style="fill:#202020;fill-opacity:1;fill-rule:nonzero;stroke:none"
             id="path78" /></g><g
           id="g80"
           transform="translate(640.1418,53.8419)"><path
             d="M 0,0 C 0.005,0.251 0.006,0.322 0.012,0.601 0.01,0.492 0.003,0.163 0,0"
             style="fill:#202020;fill-opacity:1;fill-rule:nonzero;stroke:none"
             id="path82" /></g><g
           id="g84"
           transform="translate(639.8345,55.8229)"><path
             d="M 0,0 0.001,0.003 C 0.001,0.012 0.001,0.011 0,0"
             style="fill:#202020;fill-opacity:1;fill-rule:nonzero;stroke:none"
             id="path86" /></g><g
           id="g88"
           transform="translate(640.1538,54.4433)"><path
             d="M 0,0 0,0.003 0,0.029 C 0,0.017 0,0.01 0,0"
             style="fill:#202020;fill-opacity:1;fill-rule:nonzero;stroke:none"
             id="path90" /></g><g
           id="g92"
           transform="translate(639.9957,53.8057)"><path
             d="M 0,0 C 0.001,0.049 0.002,0.087 0.003,0.123 0.002,0.094 0.001,0.059 0,0"
             style="fill:#202020;fill-opacity:1;fill-rule:nonzero;stroke:none"
             id="path94" /></g><g
           id="g96"
           transform="translate(639.9711,54.206)"><path
             d="M 0,0 0,-0.038 C 0,-0.012 0,0 0,0"
             style="fill:#202020;fill-opacity:1;fill-rule:nonzero;stroke:none"
             id="path98" /></g><g
           id="g100"
           transform="translate(640.025,54.202)"><path
             d="m 0,0 c 0,-0.021 -0.001,-0.06 0.001,-0.023 0,0.015 0,0.025 0,0.035 C 0,-0.027 -0.001,-0.045 0,0"
             style="fill:#202020;fill-opacity:1;fill-rule:nonzero;stroke:none"
             id="path102" /></g><g
           id="g104"
           transform="translate(640.0443,54.2034)"><path
             d="M 0,0 C 0,0.022 0.001,0.038 0.001,0.057 L 0,0.042 0,0 z"
             style="fill:#202020;fill-opacity:1;fill-rule:nonzero;stroke:none"
             id="path106" /></g><g
           id="g108"
           transform="translate(640.425,56.1854)"><path
             d="M 0,0 C 0,-0.079 0,-0.166 0,-0.253 0,-0.053 0.003,0.018 0,0"
             style="fill:#202020;fill-opacity:1;fill-rule:nonzero;stroke:none"
             id="path110" /></g><g
           id="g112"
           transform="translate(639.8291,55.7019)"><path
             d="m 0,0 c 0.003,0.071 0.005,0.106 0.005,0.121 0,0 0,-0.009 -0.001,-0.015 C 0.003,0.064 0.001,0.025 0,0"
             style="fill:#202020;fill-opacity:1;fill-rule:nonzero;stroke:none"
             id="path114" /></g><g
           id="g116"
           transform="translate(640.0839,56.4188)"><path
             d="M 0,0 0.002,-0.042 C 0.002,-0.014 0,0 0,0"
             style="fill:#202020;fill-opacity:1;fill-rule:nonzero;stroke:none"
             id="path118" /></g><g
           id="g120"
           transform="translate(640.3019,56.147)"><path
             d="M 0,0 0.001,0.034 C 0.001,0.04 0.001,0.032 0,0"
             style="fill:#202020;fill-opacity:1;fill-rule:nonzero;stroke:none"
             id="path122" /></g><g
           id="g124"
           transform="translate(640.0945,56.4186)"><path
             d="m 0,0 c -0.002,-0.099 -0.003,-0.157 -0.003,-0.194 0,0.022 0.001,0.04 0.002,0.072 L 0,0 z"
             style="fill:#202020;fill-opacity:1;fill-rule:nonzero;stroke:none"
             id="path126" /></g><g
           id="g128"
           transform="translate(640.4246,55.9296)"><path
             d="M 0,0 0,0.003 0,0 z"
             style="fill:#202020;fill-opacity:1;fill-rule:nonzero;stroke:none"
             id="path130" /></g><g
           id="g132"
           transform="translate(640.3724,53.7985)"><path
             d="m 0,0 c -0.001,-0.04 -0.001,0.015 -0.001,0.073 0,0 0.001,0.014 0.002,0.034 l 0,0.034 C 0.001,0.087 0,0.037 0,0 M 0.002,1.948 C 0.003,1.937 0.005,1.937 0.005,1.937 0.004,1.84 0.003,1.75 0.003,1.745 c 0,0.065 0,0.121 -0.001,0.203 m 0.006,0.004 0,0.006 c 0,0.006 10e-4,0.016 10e-4,0.016 0,0 -10e-4,-0.01 -10e-4,-0.022 M 0.073,2.799 C 0.073,2.79 0.07,2.437 0.069,2.225 0.065,2.12 0.068,2.497 0.068,2.686 0.067,2.588 0.062,2.278 0.062,2.264 c 0,0.06 0,0.083 0,0.159 -0.008,-0.294 0,-0.015 -0.01,-0.383 0,0.032 0,0.063 0,0.091 C 0.051,1.946 0.051,1.758 0.05,1.624 0.049,1.618 0.047,1.391 0.048,1.633 c 0,0.007 0.001,0.09 0.001,0.165 L 0.048,1.693 C 0.051,2.04 0.049,1.813 0.051,2.07 0.048,1.957 0.044,1.67 0.043,1.768 0.046,2.108 0.044,1.883 0.047,2.185 l 0.002,-0.13 c 0.002,0.531 0,-0.033 0.002,0.536 C 0.048,2.689 0.046,2.417 0.043,2.517 0.042,2.328 0.041,2.238 0.04,2.049 0.033,1.71 0.04,2.903 0.034,2.45 0.032,2.224 0.029,1.794 0.027,2.022 L 0.031,2.406 C 0.027,2.444 0.025,1.854 0.023,2.112 0.026,2.263 0.025,2.239 0.026,2.285 0.026,2.588 0.021,2.067 0.021,2.067 l 0.002,0.34 C 0.021,2.354 0.011,2.109 0.008,2.046 0.009,2.148 0.01,2.254 0.011,2.358 0.004,2.188 -0.001,2.4 -0.004,2.601 L -0.008,2.308 c 0,0 0.001,0.132 0.001,0.189 -0.001,0.112 -0.002,-0.186 -0.004,-0.301 0,0.02 10e-4,0.169 0.002,0.257 C -0.015,2.204 -0.024,1.917 -0.025,2.231 l 0.001,0.087 C -0.025,2.438 -0.033,1.717 -0.033,1.991 l 0.001,0.052 C -0.037,2.17 -0.047,1.901 -0.047,2.344 -0.052,1.922 -0.051,2.533 -0.058,1.943 c 0,0.293 -10e-4,0.398 -10e-4,0.594 0,-0.027 -0.007,-0.368 -0.009,-0.429 L -0.064,2.416 -0.07,2.093 -0.067,2.461 -0.069,2.382 C -0.07,2.364 -0.07,2.244 -0.071,2.155 -0.075,2.016 -0.074,2.37 -0.072,2.528 l -0.01,-0.261 c 0.003,0.124 0.004,0.167 0.005,0.246 -0.007,-0.315 0.004,0.324 -0.002,0.036 -0.001,-0.07 -0.003,-0.183 -0.004,-0.246 0.001,0.187 -0.002,0.188 -0.005,0.11 l 0.003,0.212 C -0.089,2.679 -0.095,2.523 -0.1,2.527 -0.102,2.428 -0.107,2.06 -0.107,2.025 L -0.103,2.35 C -0.106,2.149 -0.105,2.227 -0.109,1.981 c 0,0.038 0.005,0.371 0.007,0.476 L -0.106,2.344 c 0.001,0.098 0.002,0.149 0.004,0.273 -0.004,-0.202 10e-4,0.327 -0.005,-0.024 L -0.106,2.69 C -0.11,2.692 -0.114,2.58 -0.118,2.564 -0.125,2.283 -0.123,2.345 -0.128,2.118 -0.13,2.208 -0.129,2.429 -0.133,2.405 -0.136,2.265 -0.138,2.167 -0.142,2 -0.139,2.256 -0.139,2.232 -0.137,2.416 -0.139,2.374 -0.14,2.365 -0.152,2.157 -0.153,2.052 -0.154,2.007 -0.155,1.919 c -0.002,-0.042 0,0.108 0.002,0.231 l 0.001,0.026 C -0.165,1.792 -0.153,2.923 -0.167,2.389 l 0.001,0.027 -0.01,-0.279 c 0,0.045 0.003,0.193 0.006,0.351 C -0.183,2.061 -0.177,2.551 -0.187,2.266 -0.176,3.021 -0.2,2.213 -0.195,2.695 L -0.198,2.517 c -0.005,-0.174 0,0.102 0,0.143 C -0.2,2.522 -0.201,2.5 -0.202,2.403 -0.217,2.189 -0.217,2.664 -0.224,2.824 -0.226,2.872 -0.246,1.904 -0.241,2.329 l 0.008,0.33 c -0.016,-0.396 -0.014,0.014 -0.03,-0.322 0.003,0.076 0.006,0.174 0.006,0.174 0.004,0.24 -0.006,0.012 -0.011,-0.184 0.001,0.022 0.004,0.177 0.006,0.276 0.002,0.142 -0.011,-0.306 -0.006,-0.067 0.001,0.039 0.002,0.078 0.003,0.096 -0.005,-0.116 0.001,0.03 -0.01,-0.247 0.001,0.132 -0.008,-0.123 -0.006,0.041 -0.012,-0.26 0.003,0.079 -0.013,-0.289 0.012,0.453 0.005,0.365 -0.003,0.152 0.004,0.137 0.004,0.142 0.008,0.331 0,-0.006 -0.003,-0.09 -0.012,-0.322 C -0.29,2.839 -0.32,1.862 -0.303,2.556 -0.318,2.313 -0.328,2.148 -0.334,2.042 c 0.017,0.451 0.001,0.046 0.02,0.519 -0.01,-0.186 -0.024,-0.573 -0.026,-0.464 0.002,0.062 0.006,0.195 0.009,0.273 -0.011,-0.186 -0.009,0.041 -0.021,-0.205 0.002,0.042 0.004,0.088 0.005,0.123 -0.001,-0.015 0,0.065 -0.006,-0.139 L -0.35,2.204 C -0.361,1.907 -0.372,1.583 -0.377,1.426 c 0.016,0.587 0.004,0.148 0.024,0.89 -0.001,-0.039 -0.005,-0.136 -0.009,-0.273 0.001,0.04 0.003,0.12 0.008,0.276 C -0.359,2.207 -0.369,2 -0.369,1.994 c 0.003,0.1 0.005,0.138 0.009,0.254 -0.008,-0.193 -0.015,-0.387 -0.015,-0.303 0.002,0.06 0.005,0.137 0.005,0.137 -0.005,-0.03 -0.023,-0.515 -0.022,-0.329 0.011,0.432 0.003,0.142 0.014,0.515 L -0.384,2.157 -0.389,1.976 C -0.391,1.983 -0.401,1.711 -0.399,1.833 L -0.393,1.987 -0.399,1.916 -0.401,1.774 C -0.41,1.582 -0.416,1.302 -0.416,1.406 c 0.001,0.038 0,0.005 0.004,0.225 l 0,10e-4 C -0.417,1.513 -0.422,1.388 -0.421,1.48 -0.417,1.6 -0.408,1.893 -0.405,1.972 -0.42,1.661 -0.409,1.886 -0.425,1.554 c 0.002,0.078 0.009,0.274 0.01,0.314 L -0.424,1.614 c 0.002,0.081 0.004,0.121 0.008,0.277 -0.001,0.046 -0.014,-0.474 -0.011,-0.27 0,0.021 0.002,0.059 0.004,0.097 -0.001,0.107 -0.013,-0.16 -0.012,-0.036 0.014,0.376 0.003,0.092 0.015,0.409 C -0.427,2.023 -0.445,1.641 -0.447,1.73 l 0,-0.042 c -0.019,-0.53 0.005,0.262 -0.006,0.012 0.001,0.037 0.007,0.18 0.009,0.235 -0.001,0.086 -0.011,-0.13 -0.022,-0.297 l 0.005,0.137 C -0.463,1.896 -0.462,1.845 -0.463,1.907 -0.469,1.771 -0.468,1.793 -0.475,1.595 -0.454,2.37 -0.503,1.179 -0.485,1.826 L -0.48,1.945 -0.489,1.82 C -0.496,1.589 -0.493,1.68 -0.499,1.5 -0.506,1.363 -0.511,1.257 -0.511,1.257 -0.506,1.41 -0.498,1.628 -0.494,1.757 -0.496,1.686 -0.499,1.608 -0.502,1.536 -0.489,1.947 -0.52,1.072 -0.513,1.348 l 0.005,0.121 C -0.512,1.408 -0.519,1.247 -0.519,1.282 -0.508,1.549 -0.514,1.407 -0.505,1.626 -0.507,1.611 -0.528,1.12 -0.52,1.387 c 0.005,0.074 0.005,0.075 0.009,0.149 0.008,0.314 0.006,0.234 0.007,0.284 l 0,-0.007 0.002,0.142 L -0.504,1.87 C -0.541,1.175 -0.511,1.742 -0.535,1.287 c 0.017,0.431 0.01,0.249 0.022,0.552 0.003,0.084 0.006,0.178 0.008,0.263 C -0.516,1.858 -0.5,2.295 -0.516,1.938 -0.512,2.035 -0.515,1.947 -0.507,2.192 -0.51,2.115 -0.514,2.022 -0.518,1.9 -0.534,1.567 -0.51,2.304 -0.532,1.847 -0.542,1.659 -0.559,1.331 -0.568,1.167 c 0.007,0.156 0.016,0.355 0.016,0.355 0.004,0.144 0.001,0.117 -0.005,0.006 0.003,0.085 0.006,0.157 0.01,0.266 -0.003,-0.025 -0.016,-0.355 -0.012,-0.211 0.005,0.108 0.013,0.282 0.018,0.391 -0.005,-0.089 -0.015,-0.271 -0.02,-0.359 0.007,0.17 0.012,0.257 0.017,0.368 C -0.549,1.907 -0.553,1.829 -0.568,1.561 L -0.57,1.465 c 0,0.013 0.009,0.231 0.011,0.28 C -0.548,1.956 -0.56,1.651 -0.564,1.554 L -0.568,1.491 C -0.59,0.92 -0.559,1.583 -0.557,1.55 L -0.575,1.134 -0.559,1.479 C -0.563,1.371 -0.573,1.139 -0.575,1.076 -0.582,0.871 -0.568,1.224 -0.575,0.995 -0.577,0.96 -0.577,0.94 -0.578,0.923 l 0.007,0.124 C -0.575,0.96 -0.583,0.753 -0.581,0.813 -0.588,0.574 -0.563,1.125 -0.575,0.81 L -0.576,0.785 c 0.006,0.14 0.014,0.305 0.03,0.663 L -0.573,0.695 -0.561,1 c 0,-0.011 -0.001,-0.034 -0.004,-0.156 0.008,0.209 0.005,0.133 0.013,0.33 -0.008,-0.278 0.012,0.13 -0.007,-0.356 0.01,0.232 0.007,0.179 0.014,0.34 -0.02,-0.523 0.006,0.09 -0.001,-0.15 -0.011,-0.27 -0.005,-0.127 -0.015,-0.368 0.019,0.456 0.001,-0.1 0.006,-0.013 0.014,0.363 0.01,0.152 0.017,0.272 C -0.539,0.777 -0.54,0.7 -0.541,0.569 L -0.544,0.508 c 0.019,0.367 0.016,0.297 0.02,0.373 -0.009,-0.22 -0.013,-0.306 -0.017,-0.404 l 0.002,0.001 c 0.006,0.118 0.009,0.18 0.011,0.222 L -0.539,0.426 c 0.004,0.015 0.018,0.323 0.014,0.139 0.01,0.256 0.027,0.713 0.033,0.884 -0.005,-0.139 -0.014,-0.375 -0.016,-0.432 0.001,0.018 0.005,0.115 0.004,0.056 L -0.514,0.84 C -0.516,0.738 -0.506,1.035 -0.506,1.013 -0.512,0.816 -0.511,0.872 -0.516,0.716 -0.517,0.697 -0.514,0.797 -0.517,0.72 -0.518,0.684 -0.521,0.567 -0.524,0.418 c 0.004,0.112 0.01,0.266 0.011,0.291 0,-0.014 -0.007,-0.237 -0.01,-0.339 0.007,0.137 0,-0.005 0.013,0.29 0,0 -0.004,-0.139 -0.006,-0.219 0.006,0.13 0.002,0.038 0.017,0.351 l 0.001,0.021 c 0,0.006 0,0.006 0,0.013 0.015,0.293 0.004,-0.167 0.013,-0.041 L -0.489,0.686 c 0.007,0.113 0.005,0.067 0.018,0.279 0,0 -0.005,-0.18 -0.009,-0.298 0.005,0.074 0.009,0.185 0.006,0.022 C -0.482,0.517 -0.478,0.537 -0.48,0.563 -0.48,0.478 -0.485,0.32 -0.473,0.589 -0.483,0.337 -0.482,0.271 -0.478,0.347 l 0.004,0.181 C -0.471,0.565 -0.47,0.542 -0.47,0.521 L -0.482,0.188 c -0.007,-0.405 0.033,0.688 0.015,0.011 0.007,0.233 0.005,0.164 0.013,0.436 -0.001,-0.045 -0.011,-0.523 -0.011,-0.523 -0.003,-0.185 0.019,0.485 0.018,0.359 0.004,0.119 0.016,0.435 0.02,0.547 -0.002,-0.044 -0.015,-0.497 -0.018,-0.593 -0.001,-0.009 0,0.028 0.002,0.068 C -0.445,0.45 -0.447,0.399 -0.451,0.271 l 0.004,0.118 C -0.45,0.268 -0.449,0.281 -0.453,0.086 c 0.003,0.113 0.006,0.195 0.008,0.256 -0.003,-0.171 0.005,-0.005 0.004,-0.12 0.002,0.065 0.006,0.203 0.006,0.203 0.001,-0.147 0.009,0.225 0.014,0.277 C -0.424,0.521 -0.435,0.271 -0.427,0.422 -0.43,0.3 -0.437,0.107 -0.44,0.011 c 0.011,0.228 0.002,-0.151 0.002,-0.193 l -0.004,-0.095 c 0.002,0.056 0.004,0.054 0.004,0.054 l 0.006,0.237 c 0,-0.041 0,-0.042 -0.002,-0.141 0.005,0.156 0.013,0.395 0.019,0.607 -0.002,-0.12 0.008,0.13 -0.001,-0.185 -0.001,0.107 -0.009,-0.316 -0.014,-0.367 0.002,0.038 0.003,0.036 0.002,-0.006 -0.001,-0.035 -0.002,-0.065 -0.002,-0.083 -0.005,-0.281 0.012,0.356 0.016,0.349 -0.004,-0.178 -0.006,-0.261 -0.007,-0.299 0,0 0.009,0.296 0.013,0.432 -0.001,-0.138 0.006,0.103 0.007,0.087 l 0,0.064 c 0.008,0.178 0.007,0.155 0.01,0.21 C -0.396,0.544 -0.395,0.587 -0.397,0.527 -0.386,0.838 -0.402,0.204 -0.393,0.414 -0.396,0.293 -0.401,0.08 -0.403,-0.001 c 0.009,0.23 -0.004,-0.243 0.005,-0.053 0.007,0.238 0.005,0.18 0.013,0.412 l -0.011,-0.167 0.014,0.346 c 0,0 -0.008,-0.15 -0.008,-0.109 0.006,0.195 0.005,0.135 0.011,0.333 -0.008,-0.358 0.01,0.209 0.005,-0.033 L -0.39,0.137 c -0.004,-0.263 0.015,0.303 0.016,0.155 l 0.001,0.102 c 0.007,0.235 0.004,0.033 0.008,0.128 -0.004,-0.197 -0.006,-0.269 -0.009,-0.392 0.006,0.147 0,-0.013 0.015,0.381 l -0.005,-0.26 c 0.004,0.104 0.019,0.43 0.021,0.495 -0.006,-0.215 -0.01,-0.354 -0.015,-0.508 0,0 0.001,-0.038 0.005,0.099 -0.002,-0.124 0.011,0.266 0.007,0.078 0.003,0.087 0.009,0.261 0.009,0.277 -0.001,-0.04 -0.002,-0.097 -0.002,-0.097 0.003,0.097 0.004,0.132 0.01,0.351 -0.012,-0.616 0.012,0.044 0.002,-0.484 0.006,0.066 0.011,0.129 0.012,0.144 C -0.316,0.546 -0.317,0.507 -0.317,0.528 -0.318,0.344 -0.301,1.094 -0.302,0.889 -0.311,0.57 -0.307,0.717 -0.31,0.596 c -0.016,-0.65 0.007,0.088 0,-0.291 L -0.311,0.267 c -0.004,-0.221 0.011,0.246 0.013,0.2 0,0 -0.002,-0.058 -0.003,-0.099 0.014,0.332 0.019,0.441 0.023,0.533 -0.007,-0.254 -0.004,-0.134 -0.01,-0.393 0.001,0.037 0.011,0.415 0.013,0.487 C -0.277,0.856 -0.279,0.735 -0.284,0.459 L -0.287,0.444 c -0.006,-0.356 0.004,0.012 0.004,-0.05 L -0.286,0.239 c 0.002,0.05 0.016,0.386 0.018,0.415 l 0.002,0.118 c 0.011,0.389 -0.003,-0.219 0.006,0.07 L -0.268,0.447 c 0.004,0.095 0.015,0.382 0.018,0.456 -0.01,-0.293 -0.015,-0.442 -0.02,-0.616 0,0 0.006,0.029 0.011,0.224 -0.002,-0.038 -0.004,-0.135 -0.004,-0.074 0.009,0.31 0.018,0.456 0.018,0.456 C -0.251,0.127 -0.247,0.7 -0.251,0.105 c 0.011,0.283 0.009,-0.12 0.017,-0.075 0.013,0.595 0,0.017 0.013,0.628 0.003,0.039 0.003,0.029 0.002,-0.011 L -0.221,0.282 C -0.225,0.104 -0.224,0.147 -0.228,0.01 c 0,-0.047 -0.002,-0.259 -0.004,-0.421 0.004,0.218 0.007,0.313 0.008,0.229 L -0.222,0.1 c 0.011,0.326 -0.005,-0.513 0.006,-0.191 l -0.005,-0.192 c 0.004,0.113 0.009,-0.004 0.02,0.487 -0.001,-0.071 -0.004,-0.238 -0.005,-0.282 0.005,-0.074 0.022,0.522 0.022,0.22 l -0.003,-0.149 c 0.002,0.043 0.007,0.28 0.005,0.13 -0.001,-0.062 -0.002,-0.149 -0.002,-0.158 0.001,0.051 0.007,0.262 0.007,0.175 l -0.004,-0.169 c 0.003,-0.195 0.016,0.41 0.022,0.512 -0.002,-0.44 -0.003,-0.583 -0.003,-0.654 l -0.002,-0.062 c 0.007,-0.055 0.018,0.364 0.026,0.537 -0.003,-0.478 0.01,-0.2 0.013,-0.468 0.001,0.079 0.006,0.343 0.007,0.387 0,-0.09 0.008,0.305 0.002,-0.099 l 0,0.008 c -0.004,-0.396 0,-0.291 0.002,-0.301 l 0.007,0.528 c -0.003,-0.768 0.02,0.282 0.015,-0.406 0.004,0.132 0.004,0.13 0.008,0.262 l -0.004,-0.283 c 0.004,-0.073 0.005,-0.108 0.011,-0.041 L -0.08,-0.311 c 0,0.019 0.015,0.816 0.015,0.833 L -0.069,0.099 c 0.005,0.007 0.007,-0.364 0.016,0.019 -0.001,-0.062 -0.003,-0.184 -0.004,-0.201 0.003,-0.011 0.007,-0.287 0.012,0.294 -0.004,-0.378 0.004,-0.037 0.009,0.129 L -0.039,0.062 c 0.006,0.355 0.008,0.453 0.01,0.551 0,-0.036 -10e-4,-0.223 -0.002,-0.151 0.002,-0.146 0.005,0.263 0.006,0.115 L -0.027,0.399 c 0.002,-0.021 0.003,0.074 0.006,0.282 0.002,0.111 0.004,-0.071 0.002,-0.323 0.002,0.154 0.005,0.359 0.006,0.287 -0.001,-0.096 -0.002,-0.155 -0.002,-0.184 0.002,-0.189 0.008,0.324 0.009,0.051 0,-0.093 0,-0.139 -0.001,-0.167 -0.003,0.007 -0.006,0.022 -0.005,0.043 -0.002,-0.257 -0.002,-0.302 -0.005,-0.657 0.004,0.193 0.011,0.614 0.013,0.493 0,-0.024 0,-0.049 0,-0.088 L -0.005,0.107 C -0.004,0.081 -0.004,0.105 -0.003,0.148 -0.002,0.106 -0.001,0.071 -0.001,0.071 -0.002,-0.142 0.001,-0.044 0.003,-0.054 0.004,0.227 0.004,0.182 0.006,0.414 0.005,0.394 0.005,0.38 0.004,0.369 0.004,0.36 0.004,0.356 0.003,0.34 L 0.004,0.364 C 0.002,0.356 0,0.346 0,0.346 0.002,0.488 0.004,0.608 0.005,0.452 0.007,0.633 0.009,0.819 0.01,0.906 c 0,-0.392 0,-0.604 0,-0.846 C 0.014,0.218 0.013,0.164 0.026,0.692 0.028,0.76 0.027,0.541 0.027,0.458 0.025,0.405 0.026,0.413 0.024,0.337 0.027,0.472 0.025,0.39 0.034,0.758 0.036,0.592 0.03,0.419 0.035,0.479 L 0.034,0.366 c 0.005,-0.589 0.017,0.942 0.022,0.185 0,0.046 0,0.068 0,0.129 0.009,-0.334 0.021,0.313 0.03,-0.216 0.002,-0.107 0.003,0.129 0.005,0.308 l 0,-0.302 0.004,0.348 C 0.099,1.073 0.101,0.077 0.107,0.56 L 0.106,0.763 c 0.002,-0.039 0.006,0.12 0.006,-0.114 0,0.037 0.001,0.211 0.001,0.105 l 0,-0.158 0.005,0.271 C 0.119,0.753 0.122,0.24 0.123,0.209 0.123,0.27 0.127,0.669 0.128,0.775 0.127,0.783 0.127,0.873 0.125,1.031 L 0.127,1.114 C 0.126,1.579 0.125,2.056 0.125,2.381 L 0.122,2.097 0.121,2.323 0.123,2.337 C 0.122,2.549 0.121,2.361 0.12,2.232 c 0,0.12 0,0.204 -0.001,0.249 L 0.116,2.036 c 0,0.183 0,0.362 0,0.462 C 0.116,2.292 0.115,2.09 0.115,1.954 0.114,2.166 0.114,2.338 0.112,2.158 0.113,2.278 0.113,2.354 0.113,2.407 0.111,2.263 0.112,2.346 0.109,2.098 0.106,2.36 0.109,2.031 0.105,2.471 0.103,2.366 0.101,2.125 0.1,2.107 0.098,2.635 0.1,2.138 0.097,2.704 0.087,2.23 0.093,2.493 0.087,2.23 c 0,0.038 0.001,0.114 0.001,0.09 0,0.039 -0.002,0.182 -0.003,0.272 C 0.082,2.2 0.081,2.111 0.079,1.869 0.081,2.247 0.081,2.329 0.082,2.692 0.08,2.375 0.08,2.375 0.077,2.111 c 0,0.234 0,0.113 0,0.438 C 0.072,2.068 0.076,2.46 0.073,2.165 0.071,2.407 0.074,2.624 0.07,2.475 0.071,2.625 0.073,2.799 0.073,2.799"
             style="fill:#202020;fill-opacity:1;fill-rule:nonzero;stroke:none"
             id="path134" /></g><g
           id="g136"
           transform="translate(640.3766,54.1671)"><path
             d="M 0,0 C 0,0.006 0.001,0.021 0.001,0.021 0,0.045 0,0.066 0,0.084 L 0,-0.004 0,0 z"
             style="fill:#202020;fill-opacity:1;fill-rule:nonzero;stroke:none"
             id="path138" /></g><g
           id="g140"
           transform="translate(639.8736,54.5907)"><path
             d="M 0,0 0,-0.006 C 0,0.005 0,0.016 0.001,0.034 0.001,0.02 0,0.011 0,0"
             style="fill:#202020;fill-opacity:1;fill-rule:nonzero;stroke:none"
             id="path142" /></g><g
           id="g144"
           transform="translate(640.3093,56.2853)"><path
             d="M 0,0 -0.001,-0.071 0,-0.009 0,0 z"
             style="fill:#202020;fill-opacity:1;fill-rule:nonzero;stroke:none"
             id="path146" /></g><g
           id="g148"
           transform="translate(639.8787,55.5553)"><path
             d="M 0,0 C 0.001,0.025 0.002,0.05 0.002,0.072 0.002,0.053 0.001,0.028 0,0"
             style="fill:#202020;fill-opacity:1;fill-rule:nonzero;stroke:none"
             id="path150" /></g><g
           id="g152"
           transform="translate(639.8685,55.6184)"><path
             d="M 0,0 0.002,0.1 C 0.001,0.043 0,0.016 0,0"
             style="fill:#202020;fill-opacity:1;fill-rule:nonzero;stroke:none"
             id="path154" /></g><g
           id="g156"
           transform="translate(639.8642,55.7578)"><path
             d="m 0,0 c -0.002,-0.049 -0.003,-0.086 -0.005,-0.12 l 0,-0.002 L 0,0 z"
             style="fill:#202020;fill-opacity:1;fill-rule:nonzero;stroke:none"
             id="path158" /></g><g
           id="g160"
           transform="translate(640.0255,56.086)"><path
             d="M 0,0 C 0,0 0,0.005 0.001,0.013 0.003,0.067 0.002,0.046 0,0"
             style="fill:#202020;fill-opacity:1;fill-rule:nonzero;stroke:none"
             id="path162" /></g><g
           id="g164"
           transform="translate(639.9603,55.4302)"><path
             d="M 0,0 C 0.002,0.051 0.004,0.101 0.006,0.133 0.006,0.154 0.005,0.16 0,0"
             style="fill:#202020;fill-opacity:1;fill-rule:nonzero;stroke:none"
             id="path166" /></g><g
           id="g168"
           transform="translate(640.0837,56.4236)"><path
             d="m 0,0 0,-0.005 0,0 L 0,0 z"
             style="fill:#202020;fill-opacity:1;fill-rule:nonzero;stroke:none"
             id="path170" /></g><g
           id="g172"
           transform="translate(639.968,55.558)"><path
             d="m 0,0 c 0.001,0.056 0,0.044 -0.002,0.005 0,-0.019 0,-0.048 0.002,-0.005"
             style="fill:#202020;fill-opacity:1;fill-rule:nonzero;stroke:none"
             id="path174" /></g><g
           id="g176"
           transform="translate(639.8281,55.8856)"><path
             d="M 0,0 0,0.012 C -0.001,-0.007 -0.001,-0.022 -0.002,-0.033 L 0,0 z"
             style="fill:#202020;fill-opacity:1;fill-rule:nonzero;stroke:none"
             id="path178" /></g><g
           id="g180"
           transform="translate(639.8262,55.8523)"><path
             d="m 0,0 -0.002,-0.033 c 0,0 0,0.002 0.002,0.033"
             style="fill:#202020;fill-opacity:1;fill-rule:nonzero;stroke:none"
             id="path182" /></g><g
           id="g184"
           transform="translate(639.8204,55.7484)"><path
             d="m 0,0 0.004,0.071 c 0,0 0,0.009 -0.004,-0.071"
             style="fill:#202020;fill-opacity:1;fill-rule:nonzero;stroke:none"
             id="path186" /></g><g
           id="g188"
           transform="translate(639.8354,55.7558)"><path
             d="M 0,0 0.004,0.102 C 0.003,0.081 0.002,0.048 0,0"
             style="fill:#202020;fill-opacity:1;fill-rule:nonzero;stroke:none"
             id="path190" /></g><g
           id="g192"
           transform="translate(639.8404,55.7852)"><path
             d="M 0,0 C 0,0.023 0.006,0.217 0.003,0.154 L -0.001,0.073 C 0.006,0.224 -0.008,-0.172 0,0"
             style="fill:#202020;fill-opacity:1;fill-rule:nonzero;stroke:none"
             id="path194" /></g><g
           id="g196"
           transform="translate(639.8073,54.526)"><path
             d="M 0,0 0,0.081 C -0.005,-0.027 -0.01,-0.173 -0.011,-0.199 -0.02,-0.523 -0.003,0.044 0,0"
             style="fill:#202020;fill-opacity:1;fill-rule:nonzero;stroke:none"
             id="path198" /></g><g
           id="g200"
           transform="translate(639.812,54.3684)"><path
             d="M 0,0 C -0.002,-0.05 -0.006,-0.158 -0.008,-0.219 -0.005,-0.12 -0.004,-0.095 0,0"
             style="fill:#202020;fill-opacity:1;fill-rule:nonzero;stroke:none"
             id="path202" /></g><g
           id="g204"
           transform="translate(639.89,54.3663)"><path
             d="M 0,0 -0.009,-0.256 C -0.008,-0.219 -0.005,-0.157 0,0"
             style="fill:#202020;fill-opacity:1;fill-rule:nonzero;stroke:none"
             id="path206" /></g><g
           id="g208"
           transform="translate(639.9488,55.6874)"><path
             d="M 0,0 0.004,0.159 -0.004,-0.075 0,0 z"
             style="fill:#202020;fill-opacity:1;fill-rule:nonzero;stroke:none"
             id="path210" /></g><g
           id="g212"
           transform="translate(639.8974,53.8662)"><path
             d="M 0,0 -0.002,-0.037 0.004,0.056 0,0 z"
             style="fill:#202020;fill-opacity:1;fill-rule:nonzero;stroke:none"
             id="path214" /></g><g
           id="g216"
           transform="translate(640.0345,53.9551)"><path
             d="M 0,0 0.008,0.315 C 0.005,0.258 -0.004,-0.095 0,0"
             style="fill:#202020;fill-opacity:1;fill-rule:nonzero;stroke:none"
             id="path218" /></g><g
           id="g220"
           transform="translate(640.0995,54.275)"><path
             d="M 0,0 C -0.003,-0.157 -0.003,-0.259 0.001,-0.104 0,-0.082 0.002,0.04 0,0"
             style="fill:#202020;fill-opacity:1;fill-rule:nonzero;stroke:none"
             id="path222" /></g><g
           id="g224"
           transform="translate(640.2636,53.7594)"><path
             d="M 0,0 -0.003,-0.105 0.001,-0.018 0,0 z"
             style="fill:#202020;fill-opacity:1;fill-rule:nonzero;stroke:none"
             id="path226" /></g></g></g><text
       transform="matrix(1,0,0,-1,522.2349,207.6885)"
       id="text228"><tspan
         style="fill:#ffffff;fill-opacity:1;fill-rule:nonzero;stroke:none;font-family:Virtual DJ;font-variant:normal;font-weight:normal;font-stretch:normal;font-size:150;writing-mode:lr;-inkscape-font-specification:VirtualDJ"
         x="0"
         y="0"
         id="tspan230">0</tspan><tspan
         style="fill:#000000;fill-opacity:1;fill-rule:nonzero;stroke:none;font-family:Virtual DJ;font-variant:normal;font-weight:normal;font-stretch:normal;font-size:150;writing-mode:lr;-inkscape-font-specification:VirtualDJ"
         x="-0.15"
         y="-346.95"
         id="tspan232">1</tspan></text>
</g></svg>