<?xml version="1.0" encoding="utf-8"?>
<!-- Generator: Adobe Illustrator 19.0.0, SVG Export Plug-In . SVG Version: 6.00 Build 0)  -->
<svg version="1.1" id="Livello_1" xmlns="http://www.w3.org/2000/svg" xmlns:xlink="http://www.w3.org/1999/xlink" x="0px" y="0px"
	 viewBox="0 297.9 568 194" style="enable-background:new 0 297.9 568 194;" xml:space="preserve">
<style type="text/css">
	.st0{fill:#FEFEFE;}
	.st1{fill:#6B7D7A;}
	.st2{fill:#ACB7A7;}
	.st3{fill:#C1C5B4;}
	.st4{fill:#C2C6B5;}
	.st5{fill:#B5B9AA;}
	.st6{fill:#C5CAB9;}
	.st7{fill:#B3B7A8;}
	.st8{fill:#B1B5A6;}
	.st9{fill:#C8CDBC;}
	.st10{fill:#C6CBBA;}
	.st11{fill:#B0B4A5;}
	.st12{fill:#B8BCAD;}
	.st13{fill:#C2C7B7;}
	.st14{fill:#C4C9B9;}
	.st15{fill:#B4B8A8;}
	.st16{fill:#B2B6A7;}
	.st17{fill:#B7BCAB;}
	.st18{fill:#AEB3A3;}
	.st19{fill:#BFC3B3;}
	.st20{fill:#94978D;}
	.st21{fill:#545550;}
	.st22{fill:#91938A;}
	.st23{fill:#8C8E85;}
	.st24{fill:#8A8D84;}
	.st25{fill:#9A9D93;}
	.st26{fill:#979A8F;}
	.st27{fill:#8E9186;}
	.st28{fill:#999C91;}
	.st29{fill:#D0D5C5;}
	.st30{fill:#9BA99C;}
	.st31{fill:#A3B0A3;}
	.st32{fill:#C4CCBA;}
	.st33{fill:#95A496;}
	.st34{fill:#B1BDAD;}
	.st35{fill:#C6CCBC;}
	.st36{fill:#BBC4B3;}
	.st37{fill:#798580;}
	.st38{fill:#8E9E92;}
	.st39{fill:#CBD1BF;}
	.st40{fill:#677A77;}
	.st41{fill:#9FAC9C;}
	.st42{fill:#62736F;}
	.st43{fill:#808C85;}
	.st44{fill:#6F7F7C;}
	.st45{fill:#778681;}
	.st46{fill:#6C7A76;}
	.st47{fill:#72817C;}
	.st48{fill:#6D7D7A;}
	.st49{fill:#869089;}
	.st50{fill:#F6F7F5;}
	.st51{fill:#788784;}
	.st52{fill:#81908C;}
	.st53{fill:#FCFCFC;}
	.st54{fill:#222C37;}
	.st55{fill:#232C37;}
	.st56{fill:none;}
	.st57{font-family:'ForteMT';}
	.st58{font-size:48px;}
</style>
<g>
	<g>
		<path class="st0" d="M61.6,304.2c72,0,144,0,216-0.1c2.7,0,3.3,0.5,3.3,3.3c-0.1,24.5-0.1,49.1,0,73.6c0,2.7-0.5,3.3-3.3,3.3
			c-76-0.1-152-0.1-228-0.1c-0.6-2.1-0.8-4.4,1.1-5.8c1.9-1.4,3.7,0,5.5,0.9c4.5,2.1,8.8,3.1,13.3-0.6c2.8-2.4,5.1-5,7.2-7.9
			c1.6-2.2,1.8-4.6,0.1-7c-2.5-3.8-1.7-5.5,2.7-6.1c6.2-0.8,8-4.9,4.6-10.4c-0.5-1.5-0.6-3-0.1-4.5c2.5-3.3,3.9-0.3,5.6,0.9
			c1.3,1.4,1.4,3.2,2.2,4.8c1.1,2.4,2.9,4,5.6,4.4c3,0.6,6,1.3,9.9-1c-7.2-0.1-13.2-0.8-12.3-9.4c0.6-3.1,2.9-4.5,5.7-5.4
			c2.5-0.7,4.8,0.3,7.2,0.8c2.2-0.5,2.4-2,1.6-3.6c-0.9-1.9-2.8-2.3-4.4-1.3c-2.2,1.4-3.9,1.1-6.2,0c-3-1.4-5.3,0.6-7.2,2.8
			c-3.7,4.3-3.8,4.3-6-0.7c-1-2.4-2.9-3.2-5.2-3.8c-5.8-1.3-6.1-2-3.5-7.1c1.6-3,1.2-5.3-1.2-7.9c-3.8-4.2-7.8-7.9-12.9-10.5
			C62.1,305.6,61.3,305.2,61.6,304.2z"/>
		<path class="st0" d="M89.5,344.2c-2,0.8-2.2-4.1-4.7-1.5c-1.5,0-1.7-1.3-1.7-2.2c0-4.2-2.2-5.6-6.1-5c-0.4,0.1-0.8-0.1-1.2-0.3
			c-3.3-1.3-4.3-3.9-4-7.2c-0.1-2.5,2-4.1,2.8-6.3c-1.3-0.9-1.9,0.4-2.5,1c-2.6,2.5-5.1,5-7.6,7.6c-2,2-4,4-6.1,6
			c-1.1,1.1-1.9,2.1-0.9,3.7c0.9,3.7,0,7.2-0.5,10.8c4.9,6.3,10.9,11.5,16.6,17c0.2,0.2,0.5,0.2,0.7,0.1c0.3-0.1,0.3-0.4,0.3-0.7
			c-2.3-2.8-4.1-5.7-2.5-9.5c0.3-0.7,0.7-1.4,1.3-1.9c1.2-0.8,2.6-2,3.9-1.7c5,1.2,5.6-2.2,6.2-5.6c0.3-0.6,0.7-0.9,1.3-1.1
			c2.8,0.8,2.9,2.9,2.2,5.1c-0.9,2.5-1.1,5.8-4.8,6.1c-1.2,0.1-2.4-0.1-3.6,0.1c-2.6,0.4-3.2,1.6-1.5,3.8c3,4,2.7,6.7-0.5,10.5
			c-2.7,3.2-5.5,6.1-9.1,8.2c-2.3,1.3-4.2,1.8-7,0.7c-2.3-0.9-4.7-1.3-6.8-2.9c-1.2-0.9-3.3-0.7-3.2,1.9c0,1.2-0.2,2.4-0.8,3.4
			c-1.1,0-2.1,0-3.2,0c-0.5-0.9-0.2-1.8-0.2-2.7c0-0.6,0.1-1.1,0.2-1.7c2.4-6.7,7.3-7.8,12.1-2.6c1.4,1.5,2.7,2.5,4.7,1.5
			c2.7-1.8,5.9-3,7.4-6.2c-2.9-4.3-7.1-7.5-10.6-11.2c-0.9-0.8-1.8-1.6-2.5-2.5c-2.1-2.6-4.4-3.3-7.6-1.6c-2.8,1.5-5.9,1.1-8.9,0.6
			c-2.9-1.1-5.4-2.8-7.2-5.4c-1.3-2.4-2-5-2-7.7c-0.2-10.3,11.2-16.1,18.9-11.6c2.2,1.3,3.9,0.7,5.6-1.1c4-4.2,8.3-8.3,12.4-12.4
			c0.8-0.8,1.9-1.5,1.8-2.9c-1.6-3.4-4.9-4.6-7.8-6.4c-1.5-0.9-2.6-0.1-3.8,1.1c-4.8,5.4-8.8,4.9-12.3-1.4c-0.3-3-2-4-4.9-3.7
			c-4.1,0.3-8,1.6-11.8,3.2c-1.7,0.7-2.4,2-1.4,3.8c-0.4,7.9-3.6,10.1-11.1,7.7c-1.9-0.6-3,0-4.1,1.3c-2.4,2.9-4,6.3-5.1,9.9
			c-0.4,1.6-1.8,3.1-0.7,4.9c2.8,2,6.8,3,7,7.5c0.3,3.3-1.6,5.2-4.3,6.6c-1.3,0.8-3.5,0.7-3,3.2c0.7,2.8,1.9,5.4,3.1,8
			c1.3,2.2,2.2,4.5,4.1,6.3c1.3,1,2.4,0.1,3.6-0.4c5.1-2.4,8.9-0.5,10.2,5c0.1,1.6-0.3,3-0.7,4.5c0.1,2.9,2.8,2.6,4.4,3.6
			c2,1.4,5.3,0,6.5,3.1c-11.7,0-23.4,0-35.1,0c-1.8,0-2.6-0.1-2.6-2.3c0.1-25.1,0.1-50.3,0-75.4c0-2.3,0.9-2.3,2.6-2.3
			c15.7,0,31.4,0,47.1,0c0.5,0.5,0.7,1.1,0.9,1.7c1,3,1.7,3.3,3.8,1c1.2-1.4,2.6-2.1,4.2-2.7c0.8,0,1.6,0,2.4,0
			c6.6,2.8,11.6,7.7,16.3,12.9c2.4,2.7,1.4,5.8-0.5,8.4c-1.9,2.5-2.1,4,1.5,4.5c4.4,0.6,7.8,2,8.5,7.2c0.4,2.4,1.7,0.6,2.2-0.3
			c1.3-2.2,3-3.8,5.4-5c3-1.5,5,1.4,7,1.3c1.9,0,3.9-2.8,6.7-1.5c1.6,0.7,2.4,2.1,2.4,3.8c0.1,2.2-1,3.5-3.2,3.8
			c-0.9-2.3-2-3.9-5.1-3.8c-4.2,0.1-8.2,0.1-10.6,4.4c-0.6,1-0.8,2.2-1.3,3.3C90.6,343.7,90.2,344.1,89.5,344.2z"/>
		<path class="st0" d="M59.2,304.2c-1,1.2-2.6,1.8-3.3,3.3s-1.9,2.6-3.8,2.2c-2.1-0.5-1.7-2.4-1.7-3.9c0-0.5,0-1.1,0-1.6
			C53.3,304.2,56.3,304.2,59.2,304.2z"/>
		<path class="st1" d="M47.2,381.8c-0.3,0.8-0.5,1.6-0.8,2.4c-2.7,0-5.3,0-8,0c-3.2-1.1-6.4-2-9.5-3.2c-1.5-0.5-3.2-1.1-2.7-3.4
			c3.2-0.1,5.4,2.5,8.4,3c1.7,0.2,3.3,0.9,5,0.9C42.1,381.7,44.7,380.9,47.2,381.8z"/>
		<path class="st2" d="M73.8,356.5c-0.4,0.4-0.7,0.9-1.1,1.3c-0.8,2.2-2.3,3.6-4.6,4.3c-3.2-1.2-4.8-4.3-7.2-6.3
			c-1.7-1.4-2.9-3.4-4.9-4.4c0.3-4,1.3-7.9,0.8-11.9c2.1-3.7,4.8-1.5,7.4-0.7c2,0.8,5.1-0.6,5.9,2.3c0.7,2.6-1.6,4.3-3.2,6
			c-0.7,0.7-2.1,1.3-1.5,2.5c0.5,1.1,1.9,0.7,2.9,0.7c1.2,0,2.4,0.1,3.5-0.4c1.2-2.5-1.8-1.3-2.1-2.4c-0.3-2.6,2.1-4.2,2.5-6.5
			c1.2-3-2.8-3.4-2.8-5.8c0.4-1.7,1.6-2,3.1-1.5c1.3,0.4,2.6,0.3,3.9,0.8c6.9-0.2,6.9-0.2,8.1,7.1c0.1,0.4,0.4,0.7,0.6,1
			c0,1.6,0,3.1,0,4.7c-0.2,0.3-0.4,0.6-0.6,1c-1-0.7-0.1-2-0.8-2.8c0.3,1.7,0.2,3.4,0,5.2c-0.4,2.7-1.4,4.3-4.6,3.5
			C76.8,353.9,74.8,354.4,73.8,356.5z"/>
		<path class="st3" d="M111.9,349.1c-1.4-5.3,1.3-9.3,6.6-9.8c8.5-0.7,12.7,3.5,10.3,10.5c-0.3-0.1-0.6-0.3-0.9-0.5
			c-1.1-0.8-1.9,0.1-2.6,0.6c-0.9,0.7-1.7,1.6-3,0.7c-0.4-1.4,0.6-2.5,0.7-3.8c0.1-1.4,0.2-2.8-1.4-3.3c-1.5-0.4-2.4,0.8-3.2,1.9
			c-0.9,1.3,0.1,2.9-0.6,4.2C115.7,350.9,114,348.2,111.9,349.1z"/>
		<path class="st4" d="M144.8,354.5c-1.7-2.6-0.3-5.6-0.8-8.4s-1.5-4.6-4.7-2.8c-5,2.1-4.5,7.1-5.7,11.1c-1.7-4.6-0.5-9.4-0.6-14
			c0-2.1,2.3-1.5,3.1-1c1.9,1.4,3.4,0.5,5.3,0.1c5.4-1.4,8.2,0.9,8.1,6.3C147.7,348.6,145.5,351.2,144.8,354.5z"/>
		<path class="st5" d="M89.5,344.2c0.2-0.3,0.5-0.6,0.7-0.9c1.4-0.9,2.8-1.6,4.5-1.8c0.7,0,0.9,0.5,1.1,1.1c0.4,7.2,2.5,9,10,7.8
			c1.7-0.3,2,0.1,2.4,1.5c0.5,1.8-0.5,1.8-1.8,2.1c-3.3,0.9-6.5,0.7-9.7-0.3c-2-1.4-3.6-3.2-5.6-4.7
			C90.1,347.6,90.1,345.8,89.5,344.2z"/>
		<path class="st6" d="M172,350.6c-1.3-1.5-0.6-3.3-0.7-4.9c-0.1-1.5,0.1-2.7-2-3.2c-2-0.5-1.6-2.5-0.2-3.1c2-0.8,2.8-1.7,3.1-3.9
			c0.2-1.3,2.1-1.5,3.4-1.5c1.5,0,1.1,1.5,1.2,2.5c0.1,1.2,0.3,2.1,1.7,2.1c1.1,0,2.3,0.1,2.2,1.6c-0.1,2.2-1.9,1.3-3,1.5
			c-1.1,3-3.7,5-5,7.9C172.5,350.1,172.3,350.4,172,350.6z"/>
		<path class="st7" d="M261,353.9c-0.8-2.5,0.6-4,2.4-5.3c1.3-0.9,2.5-1.9,3.8-2.8c1.6-0.9,2.8-3.1,5.2-2.1c1.5,1.7-0.5,2.2-1.1,3.1
			c-0.8,1.3-2.4,1.8-3.2,3.2c1.6,1,3.5,1.5,5.3,1.1c2.9-0.7,2.7,0.9,2.5,2.8C270.9,354.4,266,354.3,261,353.9z"/>
		<path class="st8" d="M215.1,351.4c0.4,2.2-0.1,4-2.7,3.1c-2.6-0.8-4.9-0.3-7.3,0.1c-2.5,0.3-5.1,0.1-6-3c-0.5-1.4-0.8-2.9,0.6-3.8
			c1.4-1,2.9-0.9,4.1,0.5c-0.4,1.1-0.2,1.9,0.9,2.4c2.4,1.1,4,0.1,5.3-1.8c0.7-1,1.1-2.6,2.8-2.1c1.5,0.4,1.6,1.9,1.8,3.2
			C214.9,350.4,214.8,350.9,215.1,351.4z"/>
		<path class="st9" d="M272.7,344.1c-2.2-0.6-3.6,1.4-5.5,1.7c0.4-0.5,0.8-1.1,1.2-1.6c1.3-1.6,2.6-3.2,1.6-5.4
			c-1.1-2.4-3.4-0.6-5-1.1c-1.1-0.4-3.1,2.2-3.4-0.7c-0.2-2.3,1.7-2.4,3.3-2.4c2,0,4-0.2,6,0c3.6,0.4,5.4,3.6,4.3,7.2
			C274.3,342.4,274.1,343.9,272.7,344.1z"/>
		<path class="st10" d="M237.6,342.6c-1.1-0.3-2.8,0.7-3.1-1.4c-0.3-1.9,0.7-2.6,2.5-2.6c1.2,0,1.4-1,1.4-2c0-2.3,2-2.3,3.4-2.6
			c1.9-0.3,1.4,1.4,1.5,2.5c0.1,1.2,0.3,2.1,1.8,2.1c1.1,0,2.2,0.1,2.2,1.6c-0.1,2.2-1.9,1.3-3,1.5c-0.1,0.1-0.3,0.1-0.3,0.2
			C240.9,345.8,240.9,345.8,237.6,342.6z"/>
		<path class="st9" d="M95.2,341.8c-1.6,0.7-3,1.9-4.9,1.5c0.8-5.7,3.8-8.5,9.4-8.7c1.3,0,2.7,0.1,4,0c3.8-0.4,5.1,1.3,4.3,4.9
			c-2.3-0.9-4.6-1.9-7.2-1.6C98,337.9,96.6,339.9,95.2,341.8z"/>
		<path class="st11" d="M237.6,342.6c0.4-0.4,1-0.8,1.3-0.3c1.3,2.8,2.5,2.6,3.9,0c0.2-0.3,0.9-0.4,1.4-0.5
			c-0.5,3.3-3.4,7.2,2.2,9.1c1.1,0.4,0.8,1.5,0.8,2.4c-0.1,1-0.9,1.1-1.7,1.2c-5.1,0.9-8.2-2.1-7.6-7.4
			C238.1,345.6,238.4,344.1,237.6,342.6z"/>
		<path class="st12" d="M224,345.8c0.2,3.4,2,5,5.4,4.9c1,0,2.2-0.5,2.6,1.1c0.4,1.7-0.9,1.9-2,2.3c-3.5,1.3-6.3,0.2-8.5-2.3
			c-1.8-2-4.5-4.2-2.2-7.5c1.3-1.1,2.5-0.2,3.7,0.2C223.5,344.8,223.7,345.3,224,345.8z"/>
		<path class="st13" d="M153.6,344.2c-0.9-2.8,0.8-4.1,3-4.5c2.3-0.4,4.8-0.2,7.1-0.3c1.1,0,1.8,0.5,1.6,1.7
			c-0.1,1.3-1.1,0.7-1.8,0.7c-0.5,0-1.1-0.1-1.6-0.1c-1.2,0-2.7-0.3-3,1.2c-0.2,1.3,1.4,1.4,2.3,1.8c1.6,0.6,3.4,0.9,4.3,2.6
			c-1.5,1.1-3.3,0.6-5,0.7C158.1,347.2,155.3,346.8,153.6,344.2z"/>
		<path class="st14" d="M184.8,354.5c-1.6-4.7-0.8-9.5-0.5-14.3c0.2-2.5,2.7-1.3,3.8-0.6c1.3,0.9,2,1,3.3,0.2c1.1-0.7,2.7-1.3,4-0.2
			c0.3,0.2,0.4,1,0.3,1.5c-0.4,2.1-2.2,1.4-3.5,1.8c-3,2.2-6.2,4.1-6.5,8.4C185.7,352.4,185.8,353.6,184.8,354.5z"/>
		<path class="st15" d="M160.8,347.4c1.6-0.6,3.2-0.5,4.9,0c1.1,3.4-1.7,6.8-5.7,7.3c-1.8,0.2-3.4-0.7-5.1-0.9c-1.3-0.2-1.4-1-1.3-2
			c0.1-1,0.9-1.2,1.8-1.1c1.2,0.1,2.4,0.2,3.6,0.1c2-0.1,1.8-1.1,0.8-2.4C159.9,347.8,160.5,347.7,160.8,347.4z"/>
		<path class="st16" d="M122.3,350.6c1.6,0.2,2-1.4,3.1-2.1s2.8-2.5,3.3,0.6c-0.9,1.9-2.5,3.2-3.9,4.7c-2.1,1.1-4.3,0.9-6.4,0.7
			c-2-1.2-3.9-2.3-5.7-3.8c-0.3-0.5-0.5-1.1-0.8-1.6c0.2-1,0.5-1.9,1.8-1.2c1.3,0.6,2.6,1.3,3.9,1.9
			C119.3,349.6,120.8,350.3,122.3,350.6z"/>
		<path class="st8" d="M172.1,350c-0.2-2.1-0.6-4.2,2.7-4.4c2.2-0.1,0-3.9,2.9-3.8c-0.6,3.4-3.2,7.2,2.2,9.1
			c1.1,0.4,0.9,1.5,0.8,2.4c-0.1,1-0.8,1.3-1.7,1.3c-1.1,0-2.1-0.1-3.2-0.2C174.3,353.2,172.6,352.1,172.1,350z"/>
		<path class="st12" d="M203.9,348.2c-2.8-0.7-5-0.5-4.7,3.3c-1.5-3.4-0.5-7-0.6-10.5c-0.1-2,1.7-1.6,2.9-1.6c1.2-0.1,2.5,0,2.5,1.7
			C203.9,343.4,203.9,345.8,203.9,348.2z"/>
		<path class="st17" d="M133.6,354.5c0-0.5,0.1-1.1,0-1.6c-0.8-4.8,0.1-8.6,5.7-9.5c-0.3,2.2-1.2,4.3-0.8,6.5
			C139.3,354,137.5,355.3,133.6,354.5z"/>
		<path class="st18" d="M184.8,354.5c0-0.8,0.2-1.6,0-2.4c-1.4-5.5,4.1-6.8,6.3-10.1c0,0,0.8,0.5,1.2,0.7c-2.3,1.8-3,4.3-2.5,7
			C190.4,353.9,188.7,355.3,184.8,354.5z"/>
		<path class="st13" d="M223.2,345c-1.3-0.3-2.6-0.5-3.9-0.8c1.6-3.8,5.6-6.1,9.8-5.3c1.4,0.3,3.3,0.5,3,2.9c-0.4,3-2.1,0.6-3.2,0.8
			c-0.5,0.1-1,0-1.6,0.1C225.3,342.4,224.7,344.4,223.2,345z"/>
		<path class="st18" d="M144.8,354.5c-1.1-4.4,1.3-6.8,4.7-8.7c0,1.3-0.1,2.6,0.1,3.9C150.4,353.8,148.8,355.3,144.8,354.5z"/>
		<path class="st19" d="M210.4,339.4c4.9-0.1,4.9-0.1,4.7,5.6c-1.7,0.2-3.3,2.8-5.1,0.1C210.2,343.1,209.6,341.2,210.4,339.4z"/>
		<path class="st12" d="M210.4,345.8c1.6,0.2,2.8-2.5,4.7-0.8c0,2.1,0,4.3,0,6.4c-0.7-1.4-1.4-2.8-2.2-4.4c-2.7,1.4-3.7,6.7-8.1,3.6
			c2.5,0.3,4.4-0.5,4.9-3.2C210.2,346.9,209.8,346.1,210.4,345.8z"/>
		<path class="st20" d="M272.7,344.1c0.9-0.7,0.8-2.5,2.5-2.3c-1.4,3.6-3.7,6.3-7.1,8.2C268.6,347.2,271.9,346.6,272.7,344.1z"/>
		<path class="st21" d="M261,353.9c5,0,9.9,0,14.9-0.1C270.9,355.1,266,355,261,353.9z"/>
		<path class="st22" d="M91.2,349c0.2-0.3,0.3-0.6,0.5-1c1.3,2.2,4,3.3,5.1,5.7C94,353.2,92.3,351.5,91.2,349z"/>
		<path class="st23" d="M112.7,350.7c2.4,0.5,4.3,1.8,5.7,3.8C115.9,354.1,113.7,353.3,112.7,350.7z"/>
		<path class="st24" d="M160.8,347.4c-0.3,0.3-0.6,0.6-0.9,1c-2.4-0.9-5.6-0.6-6.2-4.1C155.8,345.8,158.2,346.8,160.8,347.4z"/>
		<path class="st25" d="M124.8,353.8c0.3-2.4,2.2-3.4,3.9-4.7c0,0.2,0.1,0.5,0.1,0.7C128.2,351.9,127.1,353.4,124.8,353.8z"/>
		<path class="st26" d="M95.2,341.8c1-2.5,2.2-4.8,5.6-4c-2,1.2-4.2,2.2-4.9,4.7C95.6,342.3,95.4,342,95.2,341.8z"/>
		<path class="st27" d="M172.1,350c0.9,1.8,3.1,2.4,3.8,4.4c-2.5-0.1-3.5-1.6-3.9-3.8C172.1,350.4,172.1,350.2,172.1,350z"/>
		<path class="st28" d="M223.2,345c1.3-1,1.3-4,4.1-2.3c-1.2,0.9-2.6,1.7-3.3,3.2C223.7,345.5,223.5,345.3,223.2,345z"/>
		<path class="st8" d="M210.4,345.8c0,0.6-0.1,1.2-0.7,1.6c0.2-2.7-0.9-5.4,0.7-8C210.4,341.5,210.4,343.6,210.4,345.8z"/>
		<path class="st29" d="M47.2,309.8c4.3,5.7,7.3,5.8,11.2,0.1c1-1.5,2.3-2.1,3.7-1.2c3.6,2.1,7.7,3.8,9.8,7.8
			c-5.2,5.9-11,11.2-16.5,16.8c-1.2,1.3-2.4,1.3-3.9,0.5c-6.4-3.6-12-2.1-17.1,2.7c-3.3-4.4-7.6-4.4-12.8-4
			c-2.7,0.2-5.5-0.6-8.3,0.4c-0.9,0.3-1.8,0.2-2.7-0.2c-0.5-0.3-3-0.6-3.4-0.4c0.9-4.6,3.4-8.3,6.1-11.9c0.8-1.1,1.7-1.9,3.4-1.2
			c8.3,3.3,8.9,2.9,11.2-5.8c0.5-2.7,2.7-2.1,4.3-1.8c3.9,0.7,7.9-0.4,11.8,0.6C45.9,312.5,46.3,310.8,47.2,309.8z"/>
		<path class="st30" d="M39.2,382.5c-4.7-0.5-9.2-1.9-13-4.9c0.8-1.5,1.2-3,1.1-4.7c1.5-2.7-2-3.6-2.1-5.7c0-0.3,0.1-0.6,0.2-0.7
			c1.5-1.3,1.4-4,3.1-4.8c2-1,3.4,1.5,5.3,2.1c4.6,1.4,4.6,1.5,5.6-3.4c0.3-1.3,0.3-2.7,1.5-3.6c3.7,0.3,7.5,0.6,10.8-1.7
			c1.6-1.1,3-0.7,4.3,0.6c1.6,1.7,3.2,3.5,4.9,5.2c-1.2,1.5-2.8,2.7-3.8,4.4c-0.8,1.5-2.3,1.9-4.1,1.6c-4-0.6-4.5,0.1-2.9,4.1
			c0.5,1.2,0.7,2.3,0.1,3.4c-1,0.9-1.9,1.9-2.9,2.8c-0.8,0.5-1.7,0.6-2.6,0.6C41.4,378,39.5,379.3,39.2,382.5z"/>
		<path class="st31" d="M40.8,356.8c-0.6,3.2,0.3,8.3-2,9c-2.9,0.8-7.2-0.7-10.1-4c0.9,3.2-2,3.8-3.1,5.6c-3.9-1.2-7.3,1-10.8,1.9
			c-2.4-2-3.4-5.1-5.3-7.4c-1-2.7-1.7-5.5-3.2-8c-0.8-3.1,1.3-3.1,3.3-3.4c1.9,0.9,3.7,2,5.9,0.5c0.9-0.6,2.1-0.2,3.1,0.2
			c2.1,0.9,4.1,0.4,6.2,0.1c3.2-0.4,6.6-0.6,9.8,0.8C36.4,353.9,38.5,355.6,40.8,356.8z"/>
		<path class="st32" d="M7.2,332.2c2-0.5,1-3.3,3.2-3.8c0.4,1.1-1.6,2.5,0.2,3.4c2.1,1,4.1-0.1,5.7-0.9c1.4-0.7,2-1.4,3.2,0.1
			c0.9,1,2.2,0.8,3.7,0.5c6.5-1.4,7.9-0.8,11,4.6c0.1,2.2-1.8,3.6-2,5.6c-0.7,2.3-1.7,3.9-4.4,2.1c-1-0.7-2-0.1-3,0.2
			c-3.4,1.2-6.9,1.5-10.4,0.5c-0.8-4.7-4.5-6.1-8.4-7.5C5.4,335.2,6.7,333.8,7.2,332.2z"/>
		<path class="st33" d="M49.6,374.5c0.1-1.5,0-2.9-1.2-4c-1.1-1-1.6-2.2-0.4-3.4c1.2-1.1,2.4-2.7,4.4-1.3c2.3,1.6,3.6,0.2,4.2-1.7
			c0.7-2.1,2.2-2.8,4.1-3.1c4,3.4,7.9,7,11.1,11.3c-2.3,3.1-5.5,5-8.8,6.8c-1.4,0.5-2.9,1.4-3.8-0.4C57,374.7,53.7,373.8,49.6,374.5
			z"/>
		<path class="st0" d="M44.4,352.6c-5.2,0-7.7-2.9-7.6-8.8c0-4,4.2-8.7,7.9-9c2.9-0.2,8.9,5.3,8.9,8.2
			C53.6,349.3,50.4,352.6,44.4,352.6z"/>
		<path class="st34" d="M14.4,344.2c3.8-0.6,8.1,1.2,11.5-2c0.5-0.5,1.5-0.5,1.8,0c1.8,3,2.9,0.9,4.2-0.4c0.9,0.5,0.2,1.6,0.8,2.3
			c-0.1,2.9,0.9,5.5,1.9,8.1c-3.7,1.3-7.7-1.2-11.5,0.7c-1.4,0.7-3.1,0.2-4.6-0.6c-1-0.6-2.3-1.4-3.3-0.3c-2.8,3.1-4.2,0.7-5.6-1.4
			c2.2-1.6,4.4-3.1,4-6.4C13.9,343.8,14.1,343.8,14.4,344.2z"/>
		<path class="st35" d="M47.2,309.8c0.8,3.1,0,4.3-3.4,3.3c-4.1-1.2-8.5,0.6-12.7-0.8c-1-0.3-2.4-0.3-3.2,0.9
			c-2.3-1.8-1.9-3.3,0.6-4.5c4.5-2.1,9.1-3.5,14.1-3.8C46.3,304.7,47.8,306.1,47.2,309.8z"/>
		<path class="st36" d="M64.1,340.1c-2.4-1.4-4.7-2.6-7.4-0.6c-2.3-0.5-1.1-1.6-0.3-2.4c2.5-2.5,5.1-4.9,7.6-7.3
			c1.9-1.4,4.4-0.8,6.4-2.2c0.7-0.3,1.4-0.6,2.2-0.3c-0.3,3.1,0.5,5.7,3.5,7.2c-1.5,0.4-2.9,1-4.5-0.1c-1.1-0.7-1.7,0.1-2,1
			c-1.3,1.5-4,0.5-4.8,2.8C64.7,339,64.6,339.6,64.1,340.1z"/>
		<path class="st37" d="M32.7,344.1c-0.8-0.6-0.6-1.5-0.8-2.3c0-2.2,1.5-3.8,2.3-5.6c5-5.3,10.5-6.5,16.8-3.3
			c2.1,1.1,3.3,0.6,4.8-0.9c5.3-5.3,10.6-10.4,16-15.6c0.2,1.6-1,2.4-1.9,3.3c-4.5,4.5-9.1,9-13.5,13.6c-1.7,1.8-3.1,2.2-5.5,0.9
			C42.2,329.6,33.9,334.2,32.7,344.1z"/>
		<path class="st38" d="M39.2,382.5c-2.1-4,0-5.1,3.6-5.3c1.4-0.1,2.9-0.2,4.3-0.3c0.8,1.1-1.1,2.1,0,3.2c0,0.5,0,1.1,0,1.6
			C44.6,383.1,41.9,382.5,39.2,382.5z"/>
		<path class="st39" d="M71.3,328.2c-2.1,2-4.7,1.6-7.3,1.6c2.6-3.5,6-6.2,9-9.4c1.3-1.4,2.3-1,3,0.6
			C74.4,323.4,72.3,325.4,71.3,328.2z"/>
		<path class="st40" d="M55.9,351.4c1.4-1,1.7,0.5,2.3,1.1c3.3,3,6.5,6.2,9.7,9.3c3.3,1,4.5,5,8.1,5.5c-0.1,2.6-1.2,3.3-3.1,1.4
			C67.2,363,61.6,357.2,55.9,351.4z"/>
		<path class="st41" d="M76.1,367.3c-1.2,0.8-2.3,0.8-3.3-0.5c-1.5-1.7-3.1-3.4-4.7-5.1c1.6-1.3,3.1-2.7,4.7-4
			C71.3,361.9,73.7,364.6,76.1,367.3z"/>
		<path class="st42" d="M47.1,380.2c-1.5-1-0.2-2.1,0-3.2c0.8-0.8,1.7-1.6,2.5-2.5c3.8-1.7,7.1-0.8,9.1,2.7c1.3,2.2,2.6,2,4.5,1.4
			c0.8-0.5,0.8,0,0.8,0.6c-2,1.3-4,2.5-5.6-0.5c-1.3-2.4-3.1-4.1-6-3.7C49.4,375.3,47.8,377.3,47.1,380.2z"/>
		<path class="st43" d="M73.8,356.5c-0.6-2.7,1.7-2.5,3-2.7c6-1,6-0.9,6.4-7c0-0.4,0.1-0.7,0.3-1.8c0.3,1.6,0.4,2.4,0.6,3.3
			c-0.2,1.5-0.4,3.1-0.7,4.6c-0.4,1.8-1.6,2.9-3.4,2.3C77.7,354.5,75.7,355.4,73.8,356.5z"/>
		<path class="st44" d="M14.6,368.9c1.3,0.2,2.2-0.5,3.2-1.3c2.5-2.1,5.2-0.9,7.8-0.2c0.8,1.8,3.9,2.8,1.7,5.5
			c-1.7-5.2-4.9-6.6-9.3-3.7c-1.7,1.1-3,1.7-4.4-0.3C13.9,368.7,14.3,368.6,14.6,368.9z"/>
		<path class="st45" d="M14.4,344.2H14h-0.4c-0.6-2.8-2.2-4.7-5.1-5.3c-1.1-0.2-1.9-0.7-2.4-1.8C11.8,337.9,13.5,339.4,14.4,344.2z"
			/>
		<path class="st46" d="M63.9,379.2c-0.3-0.2-0.5-0.4-0.8-0.6c2.9-2.1,5.8-4.2,8.6-6.3C70.6,376.1,66.9,377.3,63.9,379.2z"/>
		<path class="st47" d="M6.3,353.9c2.3,2.1,2.7,5,3.3,7.9c0.2,0.2,0.3,0.4,0.2,0.6s-0.2,0.3-0.3,0.3C7.8,360,6.8,357,6.3,353.9z"/>
		<path class="st48" d="M9.6,362.6c0-0.3,0-0.6,0-0.8c2.2,2,3.5,4.7,5,7.1c-0.3,0-0.6,0-1,0.1C11.9,367.1,10.5,365,9.6,362.6z"/>
		<path class="st49" d="M71.3,328.2c0.2-3.3,2.5-5.2,4.7-7.2c0.6,3-3.5,3.5-3.4,6.3C72.2,327.6,71.7,327.9,71.3,328.2z"/>
		<path class="st50" d="M64.1,340.1c0-0.7,0-1.5,0-2.2c4-3.2,7.5-1.9,8.7,3c-0.2,2.6-1.6,4.6-3.3,6.4c0.5,1.7,4.2-0.1,3.4,3.1
			c-2.6,2-5.6,0.6-8.3,0.9c-0.7,0.1-1.2-0.4-1.3-1.2c-0.1-1.2,0.5-2,1.4-2.7c1.3-1,2.8-1.7,3.7-3.4c1.8-3.6,1.8-3.8-2.4-3.9
			C65.4,340.1,64.7,340.1,64.1,340.1z"/>
		<path class="st51" d="M72.8,341c-2.1-4.4-3.8-5-8.7-3c0.6-2,1.3-2.3,5.5-2.4C70.9,337.2,74.7,337.4,72.8,341z"/>
		<path class="st52" d="M73,350.4c-0.4-2.3-2.2-1.2-3.5-1.5c-1.1-0.2-1.1-0.2,0.1-1.6C73.7,347.5,73.7,347.5,73,350.4z"/>
		<path class="st53" d="M122.3,350.6c-1.8,1.3-3.3,0.4-4.7-0.8c-0.5-1.9-1.6-3.8,0.3-5.5c1.2-1.1,2.2-2.7,4.3-1.8
			c2,0.9,1.9,2.4,1.8,4.2C124,348.3,123.1,349.4,122.3,350.6z"/>
	</g>
</g>
<g>
	<g>
		<path class="st0" d="M561.7,419.2c0,23,0,46.1,0,69.1c-62.6,0-125.2,0-187.8,0c-0.6-0.9-0.1-1.7,0.1-2.5c3-11.3,6-22.6,9.2-33.9
			c0.6-2.3,0.5-4.2-0.8-6.1c-1.2-1.7-2.2-3.6-3.3-5.4c-0.9-1.4-0.8-2.8,0-4.2c1.3-2.2,2.5-4.3,3.9-6.4c0.8-1.2,0.9-2.5,0.5-3.9
			c-3.1-11.2-6.1-22.5-9.1-33.7c-0.3-1.3-1.1-2.5-0.4-3.9c62,0,124,0,186,0c1.5,0,1.9,0.3,1.9,1.9c-0.1,9.6,0,19.1,0,28.7
			c-2.6,0.4-5.1,0.1-7.7,0.1c-1.5,0-2.3,0.6-2.8,2c-2.6,7.4-5.3,14.8-8,22.1c-0.1,0.3-0.2,0.6-0.4,0.9c-0.2,0.4-0.4,0.9-1,0.9
			s-0.8-0.4-1-0.9c-0.5-1.1-0.9-2.3-1.3-3.4c-2.3-6.6-4.9-13.1-7.2-19.6c-0.5-1.5-1.4-2.2-3-2.1s-3.1,0-4.7,0
			c-2.1,0-2.2,0.2-1.4,2.1c2.5,6.4,5,12.7,7.5,19.1c2,5,3.8,10,5.9,14.9c0.6,1.5,0.7,2.8,0,4.3c-1.7,3.6-3.1,7.3-4.7,11
			c-0.7,1.8-0.6,1.9,1.3,2c1.6,0,3.1-0.1,4.7,0c1.6,0.1,2.5-0.6,3-2.1c3.9-10.2,7.9-20.3,11.9-30.5c2.4-6.2,4.9-12.5,7.3-18.7
			C560.4,420.3,560.5,419.3,561.7,419.2z"/>
		<path class="st54" d="M373.9,388.3c3.4,12.7,6.8,25.4,10.2,38.1c0.3,1.2,0.2,2-0.4,3c-1.6,2.5-3,5.1-4.6,7.7
			c-0.5,0.9-0.5,1.5,0,2.4c1.6,2.6,3.1,5.2,4.7,7.8c0.5,0.9,0.6,1.6,0.4,2.6c-3.5,12.8-6.9,25.5-10.3,38.3c-0.3,0-0.5,0-0.8,0
			c-11.1-2.3-21.8-5.9-32.8-8.3c-5-1.1-8.5-3.3-10.1-8.1c-1.3-3.7-3.8-4.8-7.5-4.3c-1.7,0.2-3.4-0.1-5.1,0.2
			c-1.4,0.3-2.3-0.7-3.1-1.5c-8.1-8-16.1-16.1-24.1-24.2c-1.1-1.1-2.6-1.9-3.4-3.5c0-0.1,0-0.3,0-0.4c0.5-0.9,1.1-1.7,1.8-2.4
			c8.4-8.4,16.9-16.8,25.3-25.3c1.2-1.2,2.5-1.9,4.3-1.7c2.4,0.2,4.9,0,7.3,0.1c1.6,0,2.5-0.6,3.2-1.9c1.2-2.2,2.4-4.4,3.7-6.6
			c0.7-1.3,1.8-2.1,3.2-2.5c11-2.9,22-5.9,33-8.8c1.4-0.4,2.9-0.4,4.3-0.8C373.3,388.3,373.6,388.3,373.9,388.3z"/>
		<path class="st0" d="M373.1,388.3c-5.1,1.9-10.5,2.9-15.7,4.4c-7.2,2-14.5,3.9-21.7,5.8c-1.2,0.3-2,0.9-2.5,2
			c-1.3,2.5-2.9,4.9-4.2,7.4c-0.6,1.1-1.3,1.5-2.6,1.4c-2.8-0.1-5.7,0-8.5-0.1c-1.3-0.1-2.1,0.4-3,1.2c-9.3,9.3-18.6,18.6-27.9,27.8
			c0-16.2,0-32.4,0-48.6c0-1.2,0.2-1.5,1.5-1.5C316.6,388.3,344.8,388.3,373.1,388.3z"/>
		<path class="st0" d="M286.9,438.7c0.9,0,1.2,0.8,1.7,1.3c8.8,8.7,17.5,17.4,26.2,26.1c0.9,0.9,1.8,1.4,3.2,1.3
			c2.7-0.2,5.4,0,8.1-0.1c1.5-0.1,2.3,0.5,3,1.8c1.2,2.4,2.7,4.7,4,7.1c0.6,1.2,1.5,1.7,2.7,2.1c12.2,3.2,24.3,6.5,36.4,9.7
			c0.3,0.1,0.7,0.1,0.9,0.4c-28.2,0-56.4,0-84.6,0c-1.4,0-1.7-0.3-1.7-1.7C286.9,470.7,286.9,454.7,286.9,438.7z"/>
		<path class="st54" d="M561.7,419.2c-1.8,3-2.7,6.4-4,9.6c-5.5,14-11,28-16.4,42.1c-0.6,1.5-1.3,2-2.9,1.9c-2.6-0.1-5.2,0-8.1,0
			c2-4.8,3.9-9.4,5.9-14c0.5-1.1,0.5-2.1,0.1-3.2c-4.7-11.7-9.2-23.5-13.9-35.2c-0.6-1.6-0.4-1.9,1.3-1.8c2.2,0.1,4.5,0.1,6.7,0
			c1.2-0.1,1.7,0.4,2.2,1.5c2.8,7.7,5.6,15.3,8.4,23c0.2,0.5,0.4,1.1,0.8,2.1c1-2.9,1.9-5.3,2.8-7.7c2.1-5.7,4.2-11.4,6.2-17.2
			c0.4-1.2,1-1.9,2.4-1.8c2.8,0.3,5.7-0.3,8.5,0.3C561.7,418.9,561.7,419.1,561.7,419.2z"/>
		<path class="st54" d="M431.3,453.8c-5.3,6.5-14.7,8.1-21.4,4c-4.7-2.9-6.5-7.6-6.6-12.8c-0.3-8.4-0.1-16.8-0.1-25.2
			c0-0.8,0.1-1.3,1.1-1.2c2.4,0,4.9,0.1,7.3,0c1.5,0,1.2,0.9,1.2,1.8c0,6.4,0,12.9,0,19.3c0,1.8,0,3.7,0.5,5.4
			c1,3.7,3.5,5.7,7.3,5.9c4.9,0.2,8-1.5,9.4-5.2c0.6-1.7,0.8-3.5,0.8-5.4c0-6.6,0.1-13.1-0.1-19.7c0-1.9,0.6-2.3,2.3-2.2
			c1.8,0.1,3.7,0.1,5.5,0c1.5-0.1,1.9,0.4,1.9,1.9c-0.1,10.5,0,21,0,31.5c0,1.8,0,3.7,0,5.5c0,1-0.3,1.3-1.3,1.3
			c-2.1-0.1-4.2-0.1-6.3,0c-1.3,0.1-1.6-0.5-1.5-1.7C431.4,456.1,431.3,455.2,431.3,453.8z"/>
		<path class="st54" d="M453.2,423.6c4.7-6.6,11-7.2,17.8-5.5c5.9,1.4,9.8,6.6,10.1,13.9c0.3,8.5,0.1,17.1,0.2,25.6
			c0,0.9-0.3,1.2-1.2,1.1c-2.3,0-4.6-0.1-6.9,0c-1.3,0.1-1.6-0.4-1.6-1.6c0.1-6.3,0-12.6,0-18.9c0-1.4,0-2.7-0.2-4.1
			c-0.5-5-3.5-7.8-8.4-7.8c-5.3,0-8.7,2.8-9.1,7.8c-0.3,4-0.2,8.1-0.2,12.2c0,3.6-0.1,7.2,0,10.8c0,1.3-0.4,1.6-1.6,1.6
			c-2.2-0.1-4.5-0.1-6.7,0c-1.1,0-1.3-0.4-1.3-1.4c0-12.5,0-24.9,0-37.4c0-1,0.2-1.4,1.3-1.4c2.1,0.1,4.2,0.1,6.3,0
			c1.1,0,1.5,0.3,1.4,1.4C453.1,421,453.2,422.1,453.2,423.6z"/>
		<path class="st54" d="M521,426c-1.9,0-3.5,0.1-5.1,0c-1.4-0.1-1.8,0.4-1.8,1.8c0.1,9.5,0,19.1,0.1,28.6c0,2-0.6,2.5-2.5,2.4
			c-1.8-0.2-3.7-0.1-5.5,0c-1.5,0.1-1.8-0.5-1.8-1.8c0.1-9.6,0-19.2,0.1-28.8c0-1.7-0.5-2.1-2.1-2.1c-4.6,0.1-4.6,0-4.6-4.6
			c0-2.8,0-2.8,2.7-2.8c3.9,0,3.9,0,3.9-3.9c0-2.9,0-5.8,0-8.7c0-1.1,0.3-1.4,1.4-1.4c2.3,0.1,4.6,0.1,6.9,0c1.1,0,1.4,0.3,1.4,1.4
			c-0.1,3.7,0,7.3-0.1,11c0,1.3,0.2,2,1.6,1.7c2-0.4,2.9,0.6,3.4,2.4C519.6,422.6,520.3,424.2,521,426z"/>
		<path class="st54" d="M484.9,438.7c0-6.1,0.1-12.2,0-18.3c0-1.6,0.4-2,1.9-1.9c2.2,0.1,4.3,0.1,6.5,0c1,0,1.3,0.3,1.3,1.3
			c0,12.5,0,25,0,37.5c0,1.1-0.4,1.4-1.4,1.3c-2.2-0.1-4.5-0.1-6.7,0c-1.3,0.1-1.6-0.3-1.6-1.6C484.9,451,484.9,444.8,484.9,438.7z"
			/>
		<path class="st55" d="M489.7,413.1c-4.8,0-4.8,0-4.8-4.8c0-3.8,0-3.8,4.4-3.8c1.7,0,3.8-0.7,4.9,0.3c1.1,0.9,0.3,3.1,0.3,4.7
			c0.1,3.6,0,3.6-3.6,3.6C490.5,413.1,490.1,413.1,489.7,413.1z"/>
		<path class="st0" d="M359.3,473.4c-10.1-2.6-19.8-5-29.6-7.6c-0.5-0.1-1-0.5-1.4-0.8c-7-7.1-14.1-14.3-21.1-21.4
			c0.5-0.6,1-0.3,1.5-0.3c10.5,0,21,0,31.5,0c1,0,1.7,0,2.3,1.1c5.4,9.5,10.9,18.9,16.3,28.3C359.1,472.7,359.1,472.9,359.3,473.4z"
			/>
		<path class="st0" d="M359.5,403.2c-4.5,7.8-8.8,15.1-13,22.5c-1.3,2.2-2.6,4.4-3.9,6.7c-0.3,0.6-0.6,1.1-1.5,1.1
			c-11.2,0-22.4,0-34.1,0c0.6-0.7,1-1.1,1.4-1.5c6.4-6.5,12.7-12.9,19.1-19.4c1-1,2-1.6,3.4-2C340.3,408.1,349.6,405.7,359.5,403.2z
			"/>
		<path class="st0" d="M368.1,408.3c2,7,3.5,13.9,5.9,20.6c2.3,6.5,2.3,12.6,0,19s-3.8,13.1-5.6,19.7c-0.1,0.2-0.1,0.4-0.2,0.6
			c-0.7-0.4-0.9-1.2-1.2-1.8c-5.2-8.9-10.3-17.8-15.5-26.7c-0.5-0.9-0.8-1.6-0.2-2.6c5.5-9.3,10.9-18.7,16.3-28.1
			C367.6,408.8,367.8,408.6,368.1,408.3z"/>
	</g>
</g>
<rect x="237.6" y="378.4" class="st56" width="98" height="101"/>
<text transform="matrix(1 0 0 1 237.64 412.3634)" class="st57 st58">&amp;</text>
</svg>
